<?xml version="1.0" encoding="utf-8"?>
<!-- Generator: Adobe Illustrator 17.0.2, SVG Export Plug-In . SVG Version: 6.00 Build 0)  -->
<!DOCTYPE svg PUBLIC "-//W3C//DTD SVG 1.1//EN" "http://www.w3.org/Graphics/SVG/1.1/DTD/svg11.dtd">
<svg version="1.1" id="Layer_1" xmlns="http://www.w3.org/2000/svg" xmlns:xlink="http://www.w3.org/1999/xlink" x="0px" y="0px"
	 width="1280px" height="1280px" viewBox="0 0 1280 1280" enable-background="new 0 0 1280 1280" xml:space="preserve">
<g>
	<path fill="#003366" d="M1268.371,661.728c-1.774,120.563-42.757,239.666-123.807,344.659
		c-91.948,119.11-213.594,195.884-362.02,231.791c-59.294,14.344-119.818,19.383-180.845,16.017
		c-54.964-3.031-108.314-14.765-160.333-31.904c-105.21-34.664-194.802-92.577-269.199-172.904
		C101.478,973.064,53.557,884.985,27.825,785.384c-8.491-32.865-14.56-66.175-15.395-100.081
		c-0.765-31.047-1.949-62.261,0.341-93.17c7.422-100.137,38.5-193.241,92.455-278.854c25.723-40.816,54.795-79.293,90.405-112.578
		c72.783-68.032,156.452-118.595,252.992-148.308c33.13-10.197,66.868-17.246,101.331-21.801
		c39.572-5.229,79.295-6.92,118.995-5.062c26.79,1.254,53.466,5.764,80.071,9.611c45.575,6.589,89.563,19.145,132.057,36.296
		c80.647,32.551,151.668,79.143,212.663,140.098c79.973,79.92,132.067,174.75,158.502,282.988
		C1264.764,545.789,1269.641,598.017,1268.371,661.728z M1208.295,866.76c-12.647,5.244-25.419,10.223-37.895,15.828
		c-7.739,3.477-10.783,10.668-13.609,19.213c11.125-3.918,21.144-7.438,31.158-10.975c11.694-4.13,17.415-12.995,20.173-24.197
		c0.179-0.049,0.378-0.069,0.526-0.163c0.048-0.03-0.037-0.258-0.062-0.396C1208.49,866.3,1208.393,866.53,1208.295,866.76z
		 M1203.717,636.881c0.939-40.929-3.72-82.491-13.739-123.144c-31.825-129.124-100.811-235.517-210.016-315.643
		c-90.987-66.759-193.946-103.181-307.93-109.959c-53.223-3.165-105.764,0.305-157.772,11.662
		c-132.825,29.003-240.842,96.516-323.646,201.188c-68.093,86.076-105.418,184.41-114.692,292.673
		c-3.787,44.211-2.166,88.397,4.518,132.276c7.706,50.591,22.476,99.28,44.922,145.546
		c53.766,110.828,136.429,195.184,246.306,254.756c82.121,44.524,170.43,65.707,263.877,67.446
		c41.027,0.764,81.764-3.83,121.728-12.871c146.009-33.029,262.299-109.451,348.299-228.956
		C1173.296,857.749,1203.887,752.321,1203.717,636.881z M798.633,61.202c21.276,36.387,29.629,44.757,45.013,45.21
		C835.098,85.448,827.811,63.462,798.633,61.202z M755.306,50.808c6.459,9.523,12.573,18.094,18.204,26.956
		c6.607,10.401,16.097,15.472,29.836,15.942c-6.379-9.761-12.456-18.831-18.288-28.048C778.449,55.212,768.019,52.23,755.306,50.808
		z M1000.323,153.222c2.028,36.104,4.459,47.462,20.572,56.007c0-8.47-0.033-16.824,0.007-25.178
		C1020.972,169.707,1013.786,159.961,1000.323,153.222z M885.835,90.155c12.731,38.918,17.53,46.05,34.538,51.139
		C915.224,120.197,912.802,97.759,885.835,90.155z M1028.07,1104.841c-0.326-0.899-0.651-1.798-0.977-2.698
		c-13.309-0.868-26.608-2.045-39.932-2.5c-9.488-0.324-17.316,3.692-25.181,12.805c16.543,0.93,31.372,2.924,46.028,2.075
		C1014.868,1114.126,1021.393,1108.239,1028.07,1104.841z M962.654,130.139c2.946,13.144,5.157,25.548,8.631,37.606
		c2.302,7.991,8.641,13.291,16.698,16.884C988.7,160.336,985.108,136.786,962.654,130.139z M322.864,126.668
		c21.11,5.288,41.156,16.058,62.461,0.209c-10.455-3.031-20.465-5.698-30.313-8.849C342.843,114.136,332.557,116.63,322.864,126.668
		z M432.312,1203.033c-7.271-25.888-23.126-45.917-40.572-50.181c5.29,11.601,10.125,22.662,15.355,33.543
		C412.045,1196.69,420.755,1201.946,432.312,1203.033z M925.379,109.123c3.16,10.36,6.679,20.39,9.227,30.65
		c2.844,11.453,11.125,17.467,21.172,22.821c-0.977-6.193-1.909-11.793-2.737-17.407
		C950.593,128.575,945.183,114.058,925.379,109.123z M844.24,73.355c4.642,10.214,9.251,19.81,13.383,29.596
		c4.526,10.72,12.642,16.842,25.283,19.481c-3.91-10.041-7.474-19.494-11.268-28.857C866.777,81.582,856.479,76.563,844.24,73.355z
		 M1086.766,1001.759c14.089-2.11,26.663-3.392,38.936-6.012c10.826-2.311,16.286-8.345,19.571-19.129
		C1124.755,982.093,1100.954,978.597,1086.766,1001.759z M476.726,1216.916c-7.137-11.133-14.071-21.424-20.435-32.04
		c-5.304-8.848-13.77-11.92-24.933-14.634c6.461,11.597,12.182,21.728,17.767,31.93
		C454.801,1212.538,464.251,1216.187,476.726,1216.916z M1029.619,1058.73c0.118,0.787,0.236,1.574,0.354,2.361
		c14.287-0.753,28.661-0.82,42.828-2.519c8.298-0.995,12.808-8.171,18.553-15.64
		C1068.536,1045.179,1045.737,1040.291,1029.619,1058.73z M240.785,1093.146c0.151-32.958-6.301-51.553-19.9-58.087
		C220.409,1074.217,223.228,1080.3,240.785,1093.146z M27.024,598.423c10.836-9.882,20.522-18.211,29.581-27.143
		c6.555-6.462,8.539-14.906,8.599-25.462C48.146,560.834,25.734,570.042,27.024,598.423z M727.402,1203.053
		c9.437,5.775,18.114,11.04,26.744,16.377c11.545,7.138,23.217,6.197,35.894,0.739c-10.842-5.377-21.255-9.875-30.953-15.535
		C748.893,1198.685,738.907,1198.823,727.402,1203.053z M760.782,80.991c-8.992-10.214-17.452-20.945-27.187-30.436
		c-5.325-5.192-13.266-6.088-21.885-4.811c7.333,9.342,14.178,17.973,20.921,26.678C739.45,81.224,749.259,82.028,760.782,80.991z
		 M60.655,587.347c-27.812,19.679-37.158,33.883-33.92,53.236c7.724-7.896,14.203-15.702,21.91-22.105
		C58.6,610.208,62.005,600.172,60.655,587.347z M1223.794,826.305c-37.903,16.056-47.278,24.099-49.801,39.185
		c8.943-3.793,17.455-7.799,26.263-11.047C1213.522,849.553,1221.063,840.344,1223.794,826.305z M216.128,204.645
		c12.165,0,23.43-0.231,34.681,0.065c11.153,0.294,19.36-4.908,27.878-12.87c-10.377-0.902-19.572-1.472-28.705-2.549
		C235.816,187.621,224.703,192.187,216.128,204.645z M472.533,1185.121c13.032,28.895,26.194,40.449,46.872,41.025
		c-5.881-8.084-11.993-15.811-17.344-24.01C495.113,1191.492,485.215,1186.353,472.533,1185.121z M424.317,109.248
		c-13.894-3.937-26.441-7.191-38.777-11.082c-9.878-3.116-17.009,1.941-26.308,6.574c11.27,3.587,21.087,6.191,30.481,9.831
		C401.724,119.225,412.281,116.72,424.317,109.248z M576.353,43.049c6.974,6.025,12.651,11.219,18.656,16.021
		c4.512,3.609,9.248,7.038,14.24,9.973c7.978,4.689,12.842,4.654,21.557,0.833C606.916,44.282,600.098,40.773,576.353,43.049z
		 M1249.029,702.071c-28.035,19.813-41.059,31.85-38.302,48.417c9.613-7.467,18.912-14.748,28.276-21.95
		C1247.678,721.868,1250.756,713.182,1249.029,702.071z M672.638,71.316c-8.538-8.942-17.182-18.582-26.5-27.557
		c-6.606-6.363-15.108-4.081-23.806-3.643C644.557,64.251,655.716,76.492,672.638,71.316z M990.046,1128.549
		c-21.753-0.891-43.176-13.454-63.113,4.394c7.399,1.633,14.137,3.426,20.99,4.569
		C962.61,1139.963,977.682,1143.689,990.046,1128.549z M276.269,1119.886c-2.019-11.816-3.746-23.514-6.081-35.095
		c-1.961-9.728-7.852-16.845-17.818-22.143c1.163,9.687,2.465,18.358,3.189,27.076
		C256.7,1103.442,262.066,1114.247,276.269,1119.886z M1051.863,239.418c0-11.672-0.444-21.848,0.114-31.972
		c0.672-12.2-5.759-19.83-15.555-26.132C1035.087,217.881,1032.634,219.571,1051.863,239.418z M1191.083,375.695
		c-0.522,0.835-1.192,1.565-1.478,2.417c-3.762,11.221-7.38,22.489-11.22,33.684c-3.093,9.018,0.347,16.464,5.146,24.465
		C1200.841,392.617,1201.271,389.108,1191.083,375.695z M192.592,1002.956c-1.371,22.915-8.191,45.697,16.266,61.65
		C203.833,1043.814,212.349,1020.762,192.592,1002.956z M244.473,219.503c-12.197,0-24.135-0.624-35.972,0.178
		c-11.48,0.778-18.798,8.121-24.477,17.693c9.134-0.945,17.659-1.543,26.089-2.764C222.776,232.775,236.458,232.955,244.473,219.503
		z M1200.831,789.996c9.728-6.261,18.758-12.821,28.499-18.147c11.203-6.125,14.674-15.586,15.195-27.196
		C1219.021,757.967,1200.806,772.791,1200.831,789.996z M769.836,1194.022c11.593,5.737,22.446,10.916,33.111,16.44
		c10.265,5.316,19.607,3.186,29.406-2.735c-10.886-4.669-21.496-8.644-31.54-13.689
		C790.76,1188.986,781.128,1189.081,769.836,1194.022z M640.703,1209.338c10.942,8.217,20.35,15.315,29.796,22.365
		c9.113,6.801,19.034,6.791,31.268,2.994C681.409,1225.319,668.478,1204.337,640.703,1209.338z M1220.51,628.498
		c0.665,0.28,1.33,0.561,1.995,0.841c7.895-8.762,15.988-17.364,23.626-26.334c6.574-7.72,6.807-16.612,3.603-27.324
		C1237.374,592.964,1216.4,604.264,1220.51,628.498z M891.041,1152.071c10.614,3.336,20.533,6.64,30.57,9.56
		c12.126,3.528,22.242-0.234,31.797-8.869c-12.618-2.624-24.325-4.977-35.99-7.512
		C907.9,1143.182,899.571,1145.458,891.041,1152.071z M1169.826,941.895c-37.139,6.594-49.993,12.721-56.064,26.497
		C1150.264,965.101,1161.538,959.865,1169.826,941.895z M1215.064,708.565c0.59,0.326,1.18,0.652,1.77,0.978
		c8.408-6.877,16.581-14.053,25.286-20.552c9.972-7.446,11.9-17.012,9.609-29.078
		C1236.209,674.515,1217.346,685.748,1215.064,708.565z M128.114,308.233c11.766-2.959,22.716-6.029,33.821-8.416
		c11.047-2.374,17.821-9.1,22.959-19.532C163.577,285.9,139.144,283.011,128.114,308.233z M1188.498,829.133
		c12.049-6.917,22.877-12.906,33.461-19.281c8.801-5.301,11.82-13.722,12.885-24.868c-11.177,6.873-20.897,13.195-30.964,18.942
		C1194.224,809.439,1191.692,818.64,1188.498,829.133z M284.477,149.397c21.517,3.262,41.704,13.786,61.373-2.798
		c-9.174-2.325-17.819-4.264-26.305-6.724C306.424,136.07,295.816,140.659,284.477,149.397z M41.377,511.863
		c10.101-7.033,20.306-13.93,30.272-21.141c8.279-5.99,11.354-14.658,12.899-25.946C66.162,478.309,44.077,486.063,41.377,511.863z
		 M88.827,826.667c-3.718,9.342-6.428,17.724-10.311,25.553c-6.337,12.776-4.397,24.613,3.217,37.383
		C86.021,868.601,102.656,850.222,88.827,826.667z M319.282,1113.26c3.647,12.97,6.542,24.719,10.303,36.199
		c3.167,9.667,11.682,13.873,21.075,17.417C338.722,1126.386,337.211,1122.291,319.282,1113.26z M1213.045,553.009
		c6.563-9.349,11.735-17.091,17.302-24.554c7.613-10.206,11.303-20.819,4.38-33.669
		C1224.019,512.515,1207.326,527.531,1213.045,553.009z M252.613,173.533c35.116,8.942,45.033,7.399,57.558-4.6
		C289.903,159.338,266.744,160.988,252.613,173.533z M50.727,808.346c6.589-20.19,27.907-34.817,16.983-60.369
		c-5.715,9.537-10.784,18.13-15.988,26.644C45.302,785.124,44.528,795.854,50.727,808.346z M462.94,95.264
		c-10.977-4.466-20.911-8.207-30.577-12.519c-11.49-5.127-21.38-0.866-32.328,4.018c9.506,3.498,18.223,6.281,26.569,9.879
		C438.458,101.753,449.997,102.284,462.94,95.264z M57.556,667.707c-6.632,8.578-12.724,15.667-17.896,23.344
		c-6.642,9.858-13.361,20.02-6.522,33.935C43.181,706.729,64.775,694.401,57.556,667.707z M391.498,1186.842
		c-13.893-33.21-18.556-48.498-35.19-50.183c3.327,9.941,6.944,19.723,9.832,29.704c2.256,7.797,7.3,12.669,14.546,15.858
		C383.988,1183.675,387.321,1185.06,391.498,1186.842z M99.538,427.704c-28.098,9.102-48.476,22.38-46.349,40.163
		C69.628,455.29,93.365,451.649,99.538,427.704z M445.048,72.129c10.981,5.419,21.038,10.729,31.401,15.394
		c9.511,4.281,18.677,1.821,28.796-2.798c-9.392-4.567-18.042-8.026-25.878-12.761C468.105,65.158,457.281,65.942,445.048,72.129z
		 M744.29,1229.148c-10.683-6.394-21.001-12.6-31.352-18.753c-8.241-4.899-16.841-6.573-27.264-2.101
		c9.481,6.584,18.367,12.69,27.182,18.893C722.695,1234.109,732.986,1234.185,744.29,1229.148z M75.788,787.535
		c-6.758,20.286-23.345,37.807-11.194,61.503c4.112-8.65,7.787-16.661,11.706-24.557C82.156,812.682,83.696,800.89,75.788,787.535z
		 M666.8,41.737c9.859,10.143,18.86,19.816,28.35,29.01c5.615,5.44,12.87,5.351,21.548,3.943
		c-7.24-8.261-13.863-15.513-20.13-23.047C689.117,42.686,679.869,38.948,666.8,41.737z M124.375,964.195
		c2.223-21.151,13.737-41.112-1.813-61.681C115.777,923.433,106.879,943.353,124.375,964.195z M176.946,1031.522
		c3.9-36.795,2.275-46.409-10.159-58.502c-0.768,4.653-1.477,9.006-2.208,13.357
		C161.775,1003.065,160.056,1019.484,176.946,1031.522z M998.26,1086.689c15.195,0,29.518,0.233,43.827-0.094
		c7.699-0.176,12.164-5.643,17.11-11.371C1037.549,1074.165,1015.787,1067.567,998.26,1086.689z M1168.107,397.285
		c3.675-10.454,6.987-20.483,10.729-30.357c4.124-10.88,0.369-19.52-7.59-28.125c-3.124,10.685-5.882,20.692-8.991,30.595
		C1159.106,379.43,1160.399,388.481,1168.107,397.285z M26.844,683.326c9.28-10.924,17.657-20.495,25.687-30.335
		c5.698-6.982,7.281-14.953,4.633-25.139C43.002,644.826,22.586,656.729,26.844,683.326z M286.965,1089.98
		c2.142,32.232,6.774,49.009,25.447,53.615C305.465,1124.868,308.641,1102.675,286.965,1089.98z M515.055,1198.078
		c8.626,9.665,17.02,19.539,25.951,28.928c7.012,7.371,12.195,8.451,23.182,6.3c-7.421-8.45-14.89-16.645-21.993-25.13
		C535.491,1200.168,526.7,1197.087,515.055,1198.078z M1119.472,1011.699c-28.033,2.306-52.969,3.607-57.616,19.741
		C1082.46,1029.018,1105.896,1034.212,1119.472,1011.699z M150.135,998.695c0.842-15.471,2.438-29.498,1.964-43.458
		c-0.196-5.761-4.837-11.38-7.456-17.063c-0.768,0.308-1.537,0.616-2.305,0.924c-1.513,8.888-3.072,17.768-4.529,26.664
		C135.796,978.047,138.567,988.829,150.135,998.695z M488.475,58.05c21.946,17.954,40.535,24.107,57.914,18.724
		c-8.266-5.185-16.245-9.793-23.779-15.012C512.031,54.434,501.063,52.026,488.475,58.05z M872.836,1193.571
		c-11.9-4.823-22.502-9.593-33.449-13.431c-12.153-4.26-16.074-3.542-27.413,2.873c10.998,4.731,21.435,9.113,31.777,13.7
		C853.474,1201.027,862.551,1199.524,872.836,1193.571z M72.603,507.493c-24.565,13.581-43.628,31.911-38.807,45.664
		c8.486-6.411,17.008-12.816,25.492-19.268C68.043,527.231,73.043,518.774,72.603,507.493z M1098.204,239.861
		c-1.142,8.096-2.143,15.383-3.201,22.662c-1.891,13.015-1.814,25.435,11.494,35.04c1.174-12.716,2.238-24.697,3.399-36.669
		C1110.798,251.588,1106.572,245.038,1098.204,239.861z M104.278,865.334c-5.594,20.875-21.013,40.226-2.167,62.15
		C103.629,906.5,118.432,887.359,104.278,865.334z M66.896,426.463c12.192-6.21,23.477-11.864,34.668-17.69
		c8.199-4.268,11.951-11.548,14.568-20.446C81.631,402.568,71.255,405.386,66.896,426.463z M1223.341,454.846
		c-7.229,18.586-26.186,32.864-17.027,57.562c6.644-10.905,12.365-20.472,18.266-29.933
		C1230.256,473.376,1229.533,464.538,1223.341,454.846z M83.904,385.479c10.494-4.076,20.001-8.091,29.742-11.467
		c11.336-3.929,18.785-11.052,22.164-24.015C116.615,359.998,91.944,359.935,83.904,385.479z M853.171,1167.88
		c28.147,14.063,44.7,18.299,59.56,6.469C892.665,1170.57,874.809,1154.415,853.171,1167.88z M1251.637,620.495
		c-23.307,20.085-36.241,34.826-31.569,50.427c7.071-6.994,13.55-14.089,20.772-20.376
		C1250.126,642.464,1255.202,633.27,1251.637,620.495z M61.389,708.587c-5.572,8.114-10.365,14.958-15.003,21.901
		c-2.388,3.575-4.663,7.242-6.698,11.016c-3.463,6.423-3.313,17.233,0.45,23.16C49.873,747.178,69.522,733.953,61.389,708.587z
		 M589.556,71.622c-9.604-7.046-18.29-13.13-26.638-19.625c-8.265-6.43-17.008-6.731-28.097-2.827
		C552.195,59.796,563.58,79.699,589.556,71.622z M1188.897,904.834c-12.731,4.558-24.623,8.559-36.301,13.085
		c-8.014,3.106-11.885,10.137-16.354,17.486c8.55-2.057,16.142-3.624,23.574-5.729
		C1172.862,925.98,1185.923,922.087,1188.897,904.834z M1148.672,363.264c3.912-13.443,7.889-25.018,10.53-36.874
		c1.991-8.936-2.661-16.194-9.755-23.356C1147.959,323.214,1134.037,341.755,1148.672,363.264z M654.939,1237.73
		c-18.769-10.255-27.876-33.51-54.655-28.541C616.56,1222.42,626.832,1243.403,654.939,1237.73z M1078.817,265.885
		c0.846-11.287,1.647-21.438,2.359-31.596c0.744-10.619-3.518-18.854-14.539-26.205c0,11.571,0.586,21.713-0.161,31.76
		C1065.69,250.421,1070.355,258.044,1078.817,265.885z M608.885,1237.825c-7.463-7.745-15.036-15.1-21.998-22.969
		c-7.128-8.057-16.142-10.399-26.795-10.401C580.491,1232.038,590.036,1241.203,608.885,1237.825z M154.298,271.78
		c38.464-4.876,49.606-9.263,56.781-22.846C189.97,252.146,166.814,248.818,154.298,271.78z M104.742,345.648
		c13.319-4.26,25.369-7.799,37.172-11.996c8.405-2.989,13.437-9.414,16.834-18.913C138.777,322.577,115.096,321.071,104.742,345.648
		z M1125.697,269.643c-2.261,21.031-13.528,40.554,3.092,61.041c2.224-12.585,3.882-23.705,6.221-34.688
		C1137.118,286.09,1132.92,278.575,1125.697,269.643z M1196.928,472.748c16.804-23.525,20.611-41.382,12.041-56.48
		C1193.061,442.563,1189.73,458.186,1196.928,472.748z M1244.052,535.953c-18.34,21.465-32.269,42.202-24.334,54.907
		C1230.598,573.607,1250.011,560.443,1244.052,535.953z"/>
	<path fill="#003366" d="M1208.295,866.76c0.097-0.23,0.195-0.46,0.292-0.691c0.024,0.138,0.109,0.365,0.062,0.396
		c-0.149,0.095-0.347,0.115-0.526,0.164L1208.295,866.76z"/>
	<path fill="#003366" d="M622.253,104.969c135.681-0.407,243.231,34.805,339.981,102.221
		c79.875,55.657,138.34,128.171,178.146,215.35c20.861,45.688,34.687,93.223,41.453,142.794
		c5.851,42.863,6.625,85.887,2.387,128.777c-10.441,105.678-50.177,200.039-119.07,282.387
		c-74.451,88.991-168.852,148.966-281.929,180.871c-52.569,14.833-106.537,21.352-161.158,19.251
		c-113.87-4.379-216.784-40.257-308.248-106.302c-81.569-58.9-141.909-134.404-181.21-225.622
		c-18.3-42.474-30.274-86.631-36.55-132.387c-4.706-34.31-5.844-68.76-3.727-103.069c7.274-117.862,48.185-223.523,126.123-314.439
		C295.252,205.213,392.734,147.124,508.973,119C551.488,108.714,594.782,104.523,622.253,104.969z M638.687,148.358
		c-1.732-4.292-2.991-7.12-4.022-10.025c-2.664-7.502-7.27-12.113-16.147-11.718c-19.564,0.87-39.339,0.008-58.671,2.49
		c-45.234,5.807-88.428,18.959-130.253,36.884c-106.829,45.787-184.2,120.12-230.642,224.497
		c-17.579,39.509-27.968,81.127-32.845,123.792c-2.457,21.498-1.921,43.362-1.957,65.062c-0.017,10.436,2.327,20.859,2.654,31.316
		c1.387,44.397-0.79,88.976,6.33,133.079c6.026,37.329,17.507,73.179,35.963,106.43c28.684,51.678,67.764,95.17,113.657,133.092
		c49.201,40.655,103.628,72.257,165.331,91.326c39.951,12.347,80.779,20.984,122.693,22.955c31.109,1.463,62.268,1.034,93.233-3.842
		c34.499-5.433,68.786-11.66,101.482-24.027c100.089-37.857,180.967-99.575,242.794-185.202
		c36.41-50.426,55.009-106.98,60.609-167.563c2.809-30.395,1.377-61.158,1.984-91.752c0.156-7.885,0.275-15.821,1.264-23.631
		c4.077-32.202,3.646-64.267-1.118-96.4c-6.345-42.793-16.979-84.355-35.512-123.783c-28.409-60.438-68.046-112.574-121.677-154.044
		c-53.033-41.009-113.14-68.425-178.212-85.757c-39.122-10.42-78.815-16.938-119.652-14.658c-6.083,0.34-9.553,2.887-11.687,7.987
		C642.562,138.983,640.863,143.111,638.687,148.358z M242.579,925.769c-1.265-0.015-2.529-0.03-3.794-0.045
		c-1.27,6.7-2.828,13.362-3.755,20.106c-2.916,21.219,4.21,30.82,25.719,35.643c7.094,1.591,14.095,3.633,21.045,5.759
		c8.708,2.663,13.44,8.812,15.797,17.258c2.535,9.085-2.346,16.022-7.47,25.039c8.15,1.711,15.471,3.845,22.94,4.624
		c5.74,0.599,11.739-1.243,17.498-0.711c13.145,1.213,23.238,6.981,27.315,20.182c1.752,5.673,3.544,11.337,5.453,16.962
		c5.542,16.329,16.901,26.945,33.654,32.135c11.776,3.648,24.988-0.227,30.92-9.525c-8.505-0.845-16.669-1.658-24.834-2.469
		c-12.491-1.24-21.708-7.16-26.41-18.605c-2.146-5.224-3.452-10.856-4.487-16.418c-2.576-13.834-10.071-23.657-23.946-28.018
		c-7.845-2.466-15.91-4.631-24.048-5.766c-13.048-1.821-15.558-4.624-17.222-16.881c-0.811-5.976-3.788-12.299-7.571-17.139
		c-8.425-10.778-21.059-14.749-34.213-17.649c-19.088-4.208-24.548-13.079-21.177-31.584
		C244.739,934.577,243.113,930.078,242.579,925.769z M987.319,1028.084c-1.505-2.752-2.928-5.203-4.208-7.723
		c-6.656-13.105-2.266-26.583,11.31-32.956c5.635-2.645,11.963-3.862,17.909-5.914c8.435-2.911,17.201-5.272,25.038-9.315
		c3.782-1.951,7.659-6.959,8.216-11.01c1.707-12.422-1.819-24.226-7.552-35.69c-5.766,5.645-5.766,5.645-3.322,11.791
		c4.097,10.303-0.731,24.073-10.798,29.008c-4.925,2.414-10.385,4.162-15.806,5.182c-21.724,4.086-34.289,12.974-36.896,36.795
		c-1.075,9.824-5.547,13.158-16.118,13.55c-31.48,1.166-44.956,14.79-49.321,37.566c-0.311,1.621-0.956,3.179-1.369,4.785
		c-4.703,18.289-16.815,27.531-36.401,28.038c-6.226,0.161-12.438,0.848-18.656,1.294c14.663,12.558,25.948,13.157,41.533,4.939
		c13.936-7.348,21.418-18.801,25.413-33.354c1.974-7.19,4.441-14.801,8.838-20.699c9.693-13.002,24.316-12.874,38.736-10.327
		C972.836,1035.627,980.101,1033.282,987.319,1028.084z M149.208,634.551c-7.15-8.946-14.338-17.66-21.194-26.614
		c-4.755-6.21-6.79-13.398-4.406-20.934c2.295-7.256-1.842-10.822-7.05-14.975c-1.14,4.851-1.678,9.102-3.148,13.023
		c-4.403,11.744-1.659,22.52,4.373,32.775c3.029,5.15,6.527,10.116,10.402,14.693c2.851,3.367,2.174,5.619-0.294,8.665
		c-4.836,5.97-9.691,11.987-13.818,18.423c-4.892,7.628-5.707,16.06-2.913,24.745c4.695,14.598,21.732,21.856,32.227,13.696
		c7.146-5.556,9.722-28.106,3.682-34.766c-1.11-1.224-3.929-1.789-5.637-1.381c-1.006,0.24-1.936,2.999-1.922,4.616
		c0.03,3.279,0.973,6.544,1.088,9.83c0.155,4.455-0.226,8.892-6.368,9.367c-5.106,0.395-10.499-3.904-9.639-9.275
		c1.057-6.603,2.996-13.553,6.522-19.184C136.157,649.194,142.986,642.193,149.208,634.551z M1160.096,571.147
		c-4.236,3.421-8.319,7.422-6.327,13.2c3.464,10.043,0.029,18.404-5.847,26.021c-6.147,7.968-13.101,15.345-20.216,23.574
		c2.993,3.362,6.418,7.019,9.62,10.852c4.932,5.905,10.735,11.425,14.202,18.079c2.394,4.595,2.627,11.058,1.551,16.239
		c-0.554,2.668-6.078,4.357-9.356,6.488c-2.086-3.166-4.673-6.14-6.063-9.573c-0.787-1.947,0.829-4.696,0.559-6.995
		c-0.272-2.325-1.535-4.539-2.364-6.803c-2.256,1.513-6.364,2.928-6.454,4.555c-0.452,8.173-0.93,16.609,0.687,24.55
		c1.52,7.464,9.662,11.26,17.222,10.128c9.23-1.382,18.3-10.797,19.631-19.885c1.805-12.33-2.022-23.062-9.38-32.802
		c-3.562-4.716-7.525-9.145-11.472-13.904C1162.729,615.833,1174.937,596.26,1160.096,571.147z M618.497,1162.447
		c1.084,0,3.575,0.266,5.987-0.047c9.243-1.202,18.031-3.528,21.947-12.988c0.811-1.96,0.399-5.815-0.993-6.877
		c-1.852-1.413-5.284-1.441-7.907-1.105c-1.664,0.213-3.187,2.073-4.61,3.364c-8.693,7.885-19.205,8.866-28.453,1.614
		c-6.833-5.358-13.612-11.131-19.024-17.792c-16.015-19.709-37.835-24.91-61.921-24.729c-2.283,0.017-4.541,3.174-6.81,4.874
		c2.246,2.572,4.02,6.347,6.86,7.405c3.405,1.268,7.874,0.878,11.614,0.052c12.745-2.813,22.616,2.311,30.996,10.585
		c5.816,5.743,10.934,12.245,15.771,18.821C590.666,1157.47,602.274,1163.056,618.497,1162.447z M1072.348,874.56
		c8.465,2.683,12.431-1.435,16.757-7.204c3.702-4.938,9.167-9.012,14.636-12.187c4.911-2.851,10.885-3.969,16.397-5.83
		c6.372-2.151,10.651-6.093,13.128-12.43c3.661-9.366,3.736-18.574,0.398-27.894c-2.887-8.06-6.254-15.971-8.823-24.123
		c-2.023-6.419-0.853-12.04,5.756-16.103c2.675-1.645,4.758-4.826,6.05-7.753c0.797-1.805,0.342-5.126-0.96-6.496
		c-0.997-1.049-4.418-0.674-6.385,0.043c-10.132,3.696-13.033,12.166-13.953,21.532c-1.262,12.846,1.251,24.959,7.13,36.66
		c6.062,12.065,2.209,21.605-10.19,27.587c-2.393,1.155-4.838,2.345-7.399,3.012C1088.134,847.741,1079.481,860.002,1072.348,874.56
		z M204.812,874.733c-5.735-15.785-16.526-25.452-32.134-31.459c-22.194-8.542-24.675-15.18-15.14-36.574
		c4.207-9.441,5.95-19.045,5.121-29.17c-0.823-10.047-2.659-19.742-14.324-23.286c-1.989-0.604-4.705,1.059-7.085,1.675
		c1.893,4.293,2.6,10.237,5.942,12.514c5.871,4,7.773,8.491,6.084,14.473c-1.733,6.138-4.638,11.952-6.699,18.015
		c-1.743,5.128-4.398,10.443-4.261,15.615c0.733,27.87,5.24,30.143,25.328,36.063c8.936,2.633,17.632,6.331,21.966,15.29
		C192.658,874.191,197.124,876.836,204.812,874.733z M1137.41,532.213c18.439-25.13-4.205-88.183-28.308-114.615
		c4.708,17.472,10.024,35.384,14.26,53.536c2.963,12.695,6.494,25.805,5.917,38.564
		C1128.855,519.082,1130.378,525.736,1137.41,532.213z M139.762,532.013c6.488-5.423,11.652-10.944,8.365-20.199
		c-0.83-2.336-0.426-5.268,0.023-7.823c2.056-11.693,3.832-23.465,6.643-34.993c4.228-17.338,9.237-34.496,14.02-52.124
		c-19.931,24.77-31.144,52.772-35.314,83.388C132.03,511.044,132.385,522.19,139.762,532.013z M789.072,1136.811
		c0.63,0.855,1.26,1.71,1.891,2.565c5.6-2.81,12.361-4.505,16.567-8.656c9.773-9.646,21.308-18.28,25.009-32.557
		c0.683-2.637,2.916-4.91,4.513-7.302c7.4-11.081,17.817-14.888,31.007-12.378c3.268,0.622,6.675,0.546,10.214,0.805
		c-2.187-10.396-11.044-16.143-20.57-13.776c-16.402,4.076-28.668,13.186-34.571,28.928c-3.711,9.895-10.116,15.329-21.752,15.047
		c5.392,6.184,1.897,10.653-1.791,15.044C796.125,1128.658,792.581,1132.721,789.072,1136.811z M475.325,1109.266
		c-13.063-3.057-13.825-3.405-20.513-15.756c-7.401-13.668-17.675-23.62-33.471-27.775c-7.254-1.908-13.076-0.533-17.886,4.732
		c-1.39,1.522-1.771,3.918-2.615,5.914c2.241,0.536,4.624,1.847,6.7,1.486c15.989-2.78,27.074,2.03,35.044,15.913
		c2.369,4.127,3.934,8.69,6.254,12.848c1.957,3.508,4.017,7.153,6.838,9.972c5.785,5.78,12.037,11.127,18.238,16.499
		c4.505,3.903,9.688,5.895,16.301,4.464C485.003,1127.969,469.816,1124.056,475.325,1109.266z M689.798,1157.404
		c-5.544-5.4-10.827-10.254-15.757-15.428c-4.993-5.24-9.628-10.803-14.435-16.212c-15.934-17.932-37.206-8.706-49.43,12.323
		c7.248,3.118,12.673,0.142,17.867-4.355c8.339-7.221,13.255-7.519,22.028-0.951c2.854,2.137,5.045,5.137,7.442,7.826
		c5.433,6.096,10.179,12.943,16.367,18.184C680.828,1164.677,683.708,1163.749,689.798,1157.404z M140.337,607.327
		c3.003-3.307,5.221-4.828,6.12-6.893c5.225-12.01,4.862-24.64-0.511-35.983c-7.284-15.378-16.655-29.819-24.683-43.877
		c-4.454,13.614-6.594,27.925,5.246,42.204c6.662,8.034,10.731,18.374,14.64,28.178C142.743,594.955,140.82,600.283,140.337,607.327
		z M1133.434,606.358c1.189-0.128,2.379-0.257,3.568-0.385c0.119-2.432,1.038-5.166,0.213-7.242
		c-2.86-7.2-0.893-13.777,2.576-19.838c4.385-7.663,9.552-14.911,14.543-22.233c8.406-12.331,6.321-24.946,2.444-36.683
		c-6.026,10.87-10.731,23.268-18.838,32.971c-9.622,11.517-10.589,23.608-8.804,36.832
		C1129.893,595.392,1131.962,600.837,1133.434,606.358z M1130.086,722.801c-0.983,4.727-2.613,8.922-2.388,13.02
		c0.112,2.038,3.446,5.344,5.63,5.602c13.471,1.589,14.053,1.927,14.428,14.825c0.069,2.387,0.071,4.809,0.504,7.145
		c1.256,6.762-0.288,12.235-6.768,15.864c-1.462,0.819-3.32,1.904-3.781,3.258c-0.647,1.903-0.941,4.639,0.026,6.177
		c1.531,2.434,4.232,4.171,6.437,6.203c1.36-1.486,3.482-2.773,3.956-4.49c3.147-11.416,6.333-22.846,8.759-34.42
		c3.753-17.905-1.479-25.986-19.462-31.419C1135.336,723.932,1133.168,723.533,1130.086,722.801z M486.849,1112.168
		c14.52,32.16,42.628,39.383,70.333,19.658c-5.743-7.177-10.179-8.998-17.262-5.111c-11.28,6.189-20.768,5.566-29.154-4.53
		c-1.508-1.816-3.516-3.641-5.691-4.448C499.687,1115.737,494.069,1114.323,486.849,1112.168z M148.514,722.989
		c-5.205,1.62-9.988,2.656-14.362,4.576c-6.597,2.895-13.614,7.058-13.845,14.448c-0.524,16.727,2.356,33.135,10.677,48.145
		c0.869,1.568,4.508,3.521,4.692,3.328c2.351-2.461,4.826-5.075,6.097-8.115c0.482-1.153-1.789-4.805-3.239-5.07
		c-6.081-1.112-8.214-4.967-8.328-10.129c-0.151-6.862-0.264-13.806,0.637-20.585c0.747-5.62,4.681-8.258,11.009-8.022
		c7.779,0.29,10.175-2.802,8.808-10.064C150.181,728.955,149.401,726.462,148.514,722.989z M723.84,1125.782
		c-0.361,1.503-0.723,3.006-1.084,4.509c6.018,3.604,11.603,8.543,18.138,10.561c19.015,5.87,37.845-2.514,47.468-20.158
		c0.893-1.637,1.069-4.304,0.291-5.896c-0.453-0.928-3.929-1.501-5.247-0.804c-6.071,3.211-12.376,6.322-17.639,10.59
		c-9.187,7.451-12.863,8.428-23.807,3.673c-2.438-1.059-4.828-2.686-7.364-2.959C731.071,1124.919,727.43,1125.571,723.84,1125.782z
		 M696.745,1146.487c0.544-1.163,1.132-2.389,1.693-3.626c7.978-17.574,24.677-27.526,44.198-26.435
		c3.66,0.205,7.979,1.266,10.843-0.2c3.39-1.735,5.531-5.782,8.214-8.827c-2.798-1.254-5.588-3.575-8.396-3.597
		c-25.701-0.202-45.993,10.49-61.856,29.869C685.34,1141.125,686.274,1143.837,696.745,1146.487z M1116.407,861.841
		c-8.802,1.383-13.685,4.52-14.208,11.495c-0.558,7.438-4.529,11.258-11.711,12.296c-4.33,0.626-8.916,0.242-13.029,1.458
		c-4.597,1.36-9.648,3.25-12.714,6.507c-1.145,1.216,2.753,6.936,4.067,9.951c8.666-2.516,15.796-4.873,23.08-6.624
		c7.706-1.853,13.278-6.075,16.288-13.062C1111.062,877.175,1113.308,870.23,1116.407,861.841z M208.245,903.494
		c8.174-9.657,6.084-15.375-6.417-17.28c-3.114-0.474-6.336-0.284-9.508-0.384c-11.707-0.368-14.361-2.146-16.083-13.17
		c-1.183-7.573-6.354-8.868-13.193-10.65c0.877,3.447,1.574,5.675,2.002,7.95c3.326,17.687,14.593,27.026,32.439,29.832
		C201,900.343,204.315,902.105,208.245,903.494z M1090.328,909.967c-9.41,0.908-15.321,5.031-14.577,10.36
		c1.353,9.68-2.712,16.058-11.521,19.962c-7.588,3.363-8.246,9.506-7.34,18.734C1071.163,943.293,1081.731,927.583,1090.328,909.967
		z M191.498,909.668c2.905,12.826,21.068,40.918,30.039,46.919c2.854-6.887,2.111-12.039-5.556-15.91
		c-6.022-3.041-12.508-7.633-11.754-15.069C205.198,916.014,199.84,912.569,191.498,909.668z M1053.815,904.005
		c-2.196,2.788-4.374,5.553-6.152,7.81c1.612,3.901,3.344,7.054,4.182,10.419c0.825,3.313,0.742,6.841,1.086,10.59
		C1068.772,921.37,1068.892,916.723,1053.815,904.005z M225.503,930.281c0.763-3.421,1.18-6.473,2.157-9.345
		c1.045-3.071,2.618-5.971,4.157-9.379c-2.879-2.492-5.708-4.941-8.556-7.406C211.083,918.484,211.647,924.196,225.503,930.281z
		 M168.398,808c-8.998,16.855-5.914,21.654,13.289,23.25C177.279,823.538,173.283,816.547,168.398,808z M679.779,1129.45
		c3.834-4.466,7.855-9.148,11.961-13.93c-9.267-3.996-18.074-2.506-23.706,4.403C671.653,1122.859,675.365,1125.871,679.779,1129.45
		z M342.956,1048.587c-2.424,5.205-6.312,9.573-5.604,13.055c0.853,4.197,5.607,7.642,9.13,11.975
		C352.556,1064.307,351.783,1058.767,342.956,1048.587z M1111.655,810.261c-9.605,4.289-11.761,12.303-13.468,20.943
		C1113.316,829.865,1117.095,823.897,1111.655,810.261z M932.635,1073.708c3.777-5.017,8.619-8.818,9.285-13.218
		c0.479-3.165-4.615-7.129-7.553-11.193C926.916,1059.871,926.35,1064.606,932.635,1073.708z M588.1,1113.592
		c-0.464,0.618-0.928,1.236-1.392,1.855c4.005,4.363,8.01,8.725,12.125,13.206c4.442-3.75,8.059-6.804,11.862-10.016
		C604.047,1111.23,595.71,1114.112,588.1,1113.592z M730.303,1154.413c-8.785-11.677-17.684-12.026-22.395-3.163
		c-1.616,3.04-1.321,5.535,2.593,5.36C716.6,1156.337,722.664,1155.305,730.303,1154.413z M385.845,1047.795
		c-1.133,0.793-2.267,1.585-3.4,2.378c1.38,4.876,2.76,9.752,4.14,14.627c4.851-2.282,9.702-4.565,14.553-6.847
		c-0.176-0.977-0.352-1.953-0.527-2.93C395.689,1052.614,390.767,1050.204,385.845,1047.795z M878.284,1056.303
		c5.565,3.489,8.081,11.723,14.797,7.569c2.349-1.453,2.815-11.436,0.581-13.166
		C887.997,1046.318,883.655,1052.357,878.284,1056.303z M573.446,1157.914c-1.81-7.583-4.187-11.9-10.028-12.594
		c-5.122-0.609-9.291,1.45-12.099,8.246C558.603,1154.998,565.203,1156.295,573.446,1157.914z M1021.101,941.933
		c-5.545,5.691-10.724,11.005-16.997,17.442C1019.31,959.792,1026.204,952.415,1021.101,941.933z M1005.439,992.854
		c14.755,8.691,15.575,9.446,25.717-6.004C1022.447,988.883,1014.588,990.718,1005.439,992.854z M279.602,1020.103
		c2.465-6.103,10.883-9.869,4.13-15.833c-1.454-1.284-8.365,3.294-13.522,5.496C273.914,1013.843,276.281,1016.448,279.602,1020.103
		z M1008.213,1009.557c-2.834-2.503-4.784-4.816-7.273-6.227c-1.817-1.03-4.344-0.874-6.554-1.246
		c-0.365,2.223-1.564,4.722-0.906,6.607c1.06,3.036,3.344,5.666,5.304,8.774C1001.905,1014.846,1004.601,1012.586,1008.213,1009.557
		z M259.381,943.535c-1.04,0.305-2.08,0.61-3.12,0.915c0.199,3.003-0.65,6.663,0.811,8.875c3.152,4.773,8.281,6.957,16.576,6.165
		C268.23,953.431,263.806,948.483,259.381,943.535z M944.953,1044.135c-0.268,1.057-0.536,2.113-0.804,3.17
		c4.277,1.864,8.494,4.907,12.854,5.114c2.307,0.11,4.862-4.712,8.223-8.284C956.76,1044.135,950.856,1044.135,944.953,1044.135z
		 M250.204,987.689c4.225,12.739,11.301,14.248,22.257,5.261C264.833,991.147,257.979,989.527,250.204,987.689z M333.551,1044.86
		c-4.641-0.539-9.272-1.268-13.93-1.499c-1.337-0.066-3.747,1.145-3.9,2.053c-0.253,1.499,0.496,3.603,1.583,4.793
		C321.767,1055.097,324.381,1054.481,333.551,1044.86z M466.769,1085.623c3.675,14.216,14.158,12.008,24.029,11.127
		C483.119,1093.195,475.44,1089.639,466.769,1085.623z M835.283,1119.68c0.366,0.391,0.732,0.782,1.098,1.173
		c5.493-3.284,10.986-6.568,17.249-10.312c-3.994-2.137-7.099-3.798-10.64-5.693C840.28,1110.066,837.782,1114.873,835.283,1119.68z
		 M808.832,1086.159c-6.843,3.288-13.686,6.577-20.529,9.865C802.145,1098.68,806.339,1096.753,808.832,1086.159z M435.863,1103.453
		c-3.653,2.977-6.356,5.18-9.787,7.976c5.245,3.038,9.79,5.672,14.336,8.306c0.387-0.386,0.774-0.772,1.16-1.158
		C439.804,1113.893,438.036,1109.209,435.863,1103.453z M943.613,1010.875c0.448,0.591,0.897,1.183,1.345,1.774
		c9.907-1.737,12.421-3.546,14.892-11.406C954.025,1004.699,948.819,1007.787,943.613,1010.875z M319.669,1001.769
		c0.989,8.027,4.489,10.416,13.485,9.161C328.544,1007.798,324.207,1004.852,319.669,1001.769z M661.811,1163.118
		c-1.586-2.248-2.574-3.646-4.035-5.718c-1.462,2.058-2.525,3.555-4.061,5.718C656.618,1163.118,658.456,1163.118,661.811,1163.118z
		"/>
	<path fill="#003366" d="M196.349,574.474c5.231-2.555,9.522-4.651,14.162-6.917c1.665,3.012,3.134,5.669,4.474,8.094
		c-11.278,7.04-22.331,13.94-33.917,21.173c-0.676-8.43-1.975-16.617-1.889-24.791c1.04-99.203,28.652-189.634,93.006-268.122
		c67.114-81.855,155.43-129.932,258.661-153.537c24.841-5.68,50.769-6.947,76.246-9.84c7.036-0.799,13.867,0.486,16.36,8.698
		c0.268,0.884,0.901,1.716,1.528,2.437c12.842,14.753,10.656,29.736,0.446,44.604c-8.225,11.978-11.416,24.587-5.893,40.087
		c2.014-4.704,3.407-8.485,5.218-12.066c2.806-5.548,5.719-11.061,8.927-16.394c2.331-3.874,5.668-4.847,8.639-0.669
		c5.795,8.151,11.298,16.499,17.238,25.229c2.793-6.29,2.578-13.293,0.388-19.748c-2.271-6.694-6.038-12.949-9.518-19.202
		c-9.458-16.996-7.315-35.993,6.347-49.942c1.627-1.662,5.242-1.999,7.954-2.053c46.588-0.937,91.242,9.249,134.927,23.621
		c50.647,16.663,97.753,40.36,139.407,73.188c76.384,60.199,127.431,136.227,148.237,230.423
		c9.258,41.914,14.413,84.23,10.255,127.67c-11.88-6.869-23.45-13.559-35.505-20.529c1.892-3.029,3.864-6.186,5.874-9.405
		c1.191,0.512,1.818,0.808,2.464,1.055c3.258,1.249,6.521,2.486,9.782,3.727c0.593-5.255,2.868-11.101,1.213-15.565
		c-1.192-3.212-7.399-5.489-11.782-6.525c-4.757-1.124-9.798-0.151-12.261,5.38c-9.724,21.839-30.408,30.364-50.668,39.382
		c-0.828,0.369-1.622,0.81-2.757,1.38c18.59,5.522,37.78,1.717,51.141-11.016c10.137,6.963,20.968,13.701,30.977,21.445
		c14.703,11.376,13.048,27.747,10.787,43.002c-1.676,11.311-3.292,22.154-2.639,33.795c0.876,15.616-0.394,31.573-2.763,47.091
		c-5.767,37.78-16.372,74.315-34.297,108.501c-22.669,43.234-53.734,80.364-89.626,113.637
		c-53.764,49.84-115.718,86.773-186.438,109.315c-54.878,17.492-111.41,24.339-168.782,20.619
		c-109.306-7.086-205.419-45.814-287.13-117.552c-41.12-36.102-77.232-76.075-102.597-124.382
		c-24.994-47.601-36.645-98.598-39.066-151.752c-0.236-5.186,1.563-10.477,1.196-15.637c-0.621-8.737-2.22-17.408-3.402-26.107
		c-0.225-1.658-0.384-3.325-0.635-4.979c-2.879-18.985,5.032-32.923,21.174-43.032c2.06-1.29,4.158-2.545,6.092-4.001
		c9.137-6.875,17.247-9.948,28.684-1.858c11.965,8.463,26.942,6.826,39.162,4.665c-12.125-6.64-26.02-12.941-38.29-21.463
		c-7.233-5.024-12.475-13.191-17.522-20.645c-4.126-6.094-9.482-6.554-15.301-5.114c-5.897,1.459-11.175,4.68-10.804,11.737
		C194.052,565.717,195.394,569.793,196.349,574.474z M793.786,557.968c-0.027-0.209-0.053-0.419-0.08-0.628
		c-0.148,0.188-0.296,0.376-0.444,0.565c0.212-0.018,0.424-0.036,0.636-0.054c0.324,3.75,0.126,7.629,1.06,11.229
		c5.044,19.445,16.984,34.025,34.088,44.848c16.297,10.312,34.331,16.421,51.158,20.022c-15.036,6.306-31.408,12.956-47.594,20.01
		c-27.149,11.833-41.521,33.02-46.172,61.05c-1.279,7.707-5.195,13.551-11.536,18.339c-15.507,11.711-30.932,23.535-46.107,35.651
		c-34.684,27.693-62.391,60.613-79.009,101.648c-3.697,9.13-7.151,18.352-11.061,28.418c-0.692-1.709-0.992-2.311-1.184-2.944
		c-13.547-44.571-36.131-84.071-71.701-115.392c-19.43-17.109-40.706-32.245-61.349-48.024c-5.522-4.221-8.95-9.126-10.076-15.893
		c-5.075-30.495-21.818-52.683-50.817-65.368c-14.964-6.545-30.484-11.882-44.534-17.295c56.994-15.897,90.685-49.136,84.247-84.332
		c-7.401,3.045-14.844,5.969-22.131,9.222c-1.457,0.65-3.333,2.569-3.311,3.875c0.237,13.837-9.063,21.814-19.097,28.819
		c-23.048,16.09-49.969,21.754-77.4,23.271c-27.87,1.541-55.911,0.761-83.858,0.16c-16.282-0.35-31.951-4.664-45.994-12.891
		c-5.164-3.025-8.858-2.839-13.114,0.639c-2.2,1.798-4.581,3.386-7.535,5.549c16.737,14.261,36.382,21.071,58.874,26.28
		c-5.262,0.997-8.369,1.599-11.482,2.173c-25.651,4.735-46.897,16.397-61.331,38.059c-2.639,3.961-4.894,9.506-4.217,13.862
		c0.754,4.855,4.044,10.952,8.141,13.185c3.23,1.76,9.917-0.547,14.045-2.815c4.658-2.558,8.171-7.094,13.159-11.666
		c-8.755,0.872-15.995,3.116-22.468-1.954c4.608-10.684,13.312-16.41,22.792-21.134c23.673-11.796,49.439-15.915,75.448-18.907
		c29.769-3.425,59.098-0.75,88.303,5.588c25.896,5.62,49.634,14.577,66.958,35.307c6.255,7.484,11.057,15.659,11.929,25.572
		c0.503,5.716-1.685,9.102-7.887,9.767c-4.364,0.468-8.695,1.306-13.01,2.133c-53.226,10.207-89.743,41.129-113.703,87.388
		c-6.62,12.78-12.252,25.993-12.395,40.684c-0.022,2.245-0.087,5.514,1.283,6.574c6.715,5.195,13.91,9.803,20.282,14.171
		c2.304-12.488,2.98-24.915,6.974-36.232c15.047-42.637,46.474-70.25,89.523-84.128c26.516-8.548,52.239-4.28,75.441,13.358
		c32.704,24.86,57.788,55.321,77.511,90.638c20.529,36.761,28.712,76.192,29.116,117.482c0.15,15.282-0.481,30.604-1.524,45.858
		c-1.37,20.029-9.589,36.609-29.323,47.531c12.332,1.492,23.369,0.611,30.551-7.587c6.648-7.589,10.628-17.394,15.448-25.648
		c13.962,30.145,23.365,37.349,44.209,32.503c-1.803-1.316-3.191-2.472-4.715-3.42c-13.643-8.484-20.025-21.351-21.981-36.31
		c-3.137-23.99-3.364-48.03-1.962-72.258c1.976-34.134,10.568-66.052,27.109-96.206c25.165-45.876,60.791-81.712,107.263-107.158
		c5.106-2.795,11.872-2.701,17.856-3.999c1.357-0.294,3.549-0.478,3.854-1.265c2.323-5.994,6.73-11.041,4.351-18.784
		c-2.068-6.729-2.598-14.839-0.815-21.589c6.03-22.83,23.021-36.811,44.383-45.377c25.471-10.213,52.328-15.762,79.937-15.877
		c17.128-0.071,34.349,1,51.374,2.884c21.93,2.427,43.457,7.29,62.501,18.798c6.273,3.791,11.688,9.296,16.56,14.802
		c3.828,4.326,1.883,7.588-4.119,7.749c-4.236,0.113-8.497-0.653-15.067-1.231c5.647,5.355,9.337,9.86,13.987,13.028
		c6.874,4.682,14.413,3.854,17.549-1.69c3.735-6.604,6.202-14.162,1.176-20.923c-5.831-7.844-12.125-15.63-19.479-22.077
		c-14.882-13.049-33.815-17.346-53.134-20.868c20.767-4.96,40.719-11.26,57.108-26.303c-5.163-3.754-9.605-6.985-12.351-8.982
		c-10.847,4.285-20.141,9.82-30.115,11.481c-17.058,2.84-34.517,3.793-51.854,4.567c-30.664,1.369-61.322,1.114-91.421-5.951
		c-21.265-4.992-41.689-12.526-55.325-29.99C817.503,568.433,805.101,564.38,793.786,557.968z M822.972,445.881
		c4.627,0,8.292,0.015,11.956-0.003c16.969-0.079,16.911-0.099,21.618-15.71c15.414-51.118,23.037-102.741,12.578-155.922
		c-6.762-34.383-22.625-62.891-53.537-81.889c-22.229-13.662-46.322-21.029-72.616-13.25c-26.395,7.808-42.93,26.18-53.911,50.193
		c-12.332,26.968-15.544,55.622-15.702,84.492c-0.121,22.142,1.56,44.416,4.259,66.42c3.559,29.022,11.774,57.016,28.366,81.786
		c27.282,40.728,64.98,69.89,110.039,89.932c38.133,16.962,78.102,26.087,120.398,21.707c10.36-1.073,19.875-4.712,28.323-11.699
		c-8.539-1.918-16.166-3.443-23.684-5.369c-8.7-2.23-17.204-6.409-25.969-6.931c-22.399-1.333-44.047-5.907-65.332-12.142
		c-14.18-4.154-28.314-9.011-39.917-19.107c2.363-4.304,4.545-8.29,6.739-12.271c6.534-11.852,16.381-18.695,30.473-19.192
		c5.646-0.199,11.292-0.44,16.93-0.792c41.769-2.605,76.571-18.83,102.421-51.238c20.046-25.132,27.589-53.632,18.703-84.765
		c-7.169-25.116-23.085-45.139-43.138-61.907c-18.294-15.297-38.917-26.756-62.896-33.164c1.37,10.671,2.669,20.796,4.015,31.285
		c23.389,8.232,44.355,20.887,59.365,40.943c23.776,31.771,25.869,59.045,5.053,88.316c-10.985,15.447-25.646,26.729-43.11,34.701
		c-23.304,10.638-48.026,12.716-73.19,11.269c-9.813-0.564-17.297,2.461-23.068,9.822c-7.829,9.985-15.455,20.12-23.213,30.249
		c-17.164-8.984-39.71-29.828-53.194-48.996c-22.752-32.345-29.08-69.313-30.484-107.189c-0.775-20.921,0.783-42.039,2.9-62.914
		c1.902-18.755,7.327-36.864,18.484-52.785c12.786-18.245,33.693-27.275,53.988-22.494c31.637,7.453,50.512,28.653,59.582,57.62
		c12.682,40.502,12.86,81.773,2.462,122.925C833.842,406.895,828.411,425.832,822.972,445.881z M453.23,764.685
		c6.049,9.742,12.8,18.589,17.392,28.394c12.724,27.171,13.69,55.916,8.521,84.789c-3.331,18.605-10.074,36.275-22.301,51.39
		c-1.617,1.999-4.629,4.362-6.825,4.211c-6.532-0.449-13.227-1.343-19.421-3.344c-48.014-15.508-91.985-38.095-127.194-74.103
		c-24.326-24.878-37.746-54.693-36.107-89.963c1.875-40.337,32.849-68.119,73.411-70.382c26.531-1.48,50.171,5.815,71.889,20.169
		c1.514,1.001,3.628,2.25,5.154,1.94c8.726-1.771,17.359-3.979,27.372-6.359c-6.111-5.651-10.847-11.34-16.792-15.315
		c-40.645-27.183-84.324-32.694-130.217-14.82c-30.616,11.924-48.955,34.789-55.802,66.039
		c-8.011,36.562,0.79,70.148,21.762,100.634c29.492,42.87,71.982,70.427,119.141,91.441c38.802,17.29,79.703,28.596,122.218,32.891
		c17.415,1.759,35.34,2.106,52.693,0.182c19.844-2.2,37.794-20.113,40.523-36.695c-37.496,18.574-76.372,13.526-116.2,7.743
		c0.849-1.749,1.232-2.548,1.623-3.342c18.228-37.025,27.963-75.593,22.189-116.922c-2.385-17.074-7.039-33.447-15.775-48.633
		c-4.279-7.439-10.138-11.311-18.993-10.755C465.369,764.26,459.233,764.427,453.23,764.685z M639.269,217.353
		c-0.811-0.058-1.623-0.117-2.434-0.175c-2.708,14.555-7.225,29.046-7.776,43.679c-1.511,40.149-1.271,80.358-1.919,120.54
		c-0.166,10.27-0.518,20.589-1.708,30.784c-5.179,44.394-26.039,78.971-64.791,104.417c-50.008,32.838-77.522,91.93-63.215,150.663
		c26.162,107.4,158.349,147.777,240.24,72.55c39.034-35.857,53.823-80.577,43.773-132.059c-7.379-37.797-28.283-67.67-60.876-89.428
		c-23.685-15.811-43.576-34.772-55.627-60.557c-10.65-22.788-13.352-47.259-13.984-71.814c-1.088-42.324-1.068-84.673-1.694-127.01
		C649.042,244.384,645.622,230.482,639.269,217.353z M426.186,225.803c6.584-0.448,11.947-1.085,17.315-1.124
		c14.138-0.103,28.296,0.376,39.851-9.885c2.059-1.829,5.2-2.576,7.927-3.607c22.399-8.468,42.71-4.525,58.894,12.641
		c16.62,17.63,22.411,40.224,25.019,62.898c3.883,33.756,3.448,67.713-2.507,101.419c-6.525,36.939-23.802,67.967-53.815,91.568
		c-46.661,36.691-101.122,52.683-160.208,51.871c-31.47-0.432-52.748-14.797-61.57-45.673c-2.849-9.97-3.259-20.618-4.56-30.983
		c-0.544-4.338-0.502-8.745-0.831-15.156c-7.537,5.289-13.614,9.205-19.216,13.684c-1.839,1.47-3.258,4.325-3.494,6.678
		c-4.135,41.151,22.732,80.909,63.243,93.496c21.034,6.535,42.59,5.265,64.091,2.965c42.21-4.515,81.125-18.306,117.082-40.134
		c39.114-23.746,66.94-56.092,79.457-99.902c9.407-32.921,12.116-66.564,11.132-100.595c-0.78-26.981-2.377-53.802-12.171-79.498
		c-6.802-17.845-17.068-33.394-32.428-45.158c-18.009-13.793-38.649-17.665-60.934-12.575
		C468.606,185.551,446.067,202.941,426.186,225.803z M267.617,390.002c9.985-2.078,19.07-3.719,27.992-5.97
		c2.87-0.724,6.486-2.438,7.77-4.748c14.268-25.668,32.787-48.059,54.244-68.273c29.111-27.425,61.998-46.151,104.314-44.72
		c28.805,0.974,57.401,20.744,65.908,46.776c4.643,14.207,4.686,28.719,1.94,43.18c-3.33,17.539-9.611,33.924-22.126,47.48
		c-3.028,3.28-5.96,4.943-9.545,0.505c-13.245-16.395-22.985-34.357-25.058-55.427c-1.05-10.674,4.691-16.59,14.453-16.315
		c7.593,0.214,9.935-2.526,8.085-9.814c-1.695-6.678-5.534-11.287-12.714-13.413c-15.636-4.631-32.042,4.904-35.202,22.362
		c-1.704,9.415-2.072,19.726-0.014,28.995c5.923,26.671,18.158,50.327,41.021,67.374c9.848,7.342,20.658,7.455,30.558,0.207
		c5.589-4.092,11.181-8.964,14.82-14.666c20.81-32.611,30.118-68.117,20.191-105.787c-11.055-41.952-49.06-67.748-96.566-70.06
		c-26.243-1.277-50.512,5.311-72.699,18.423C330.959,288.041,294.596,334.842,267.617,390.002z M958.16,901.288
		c1.524-0.592,2.661-0.958,3.732-1.46c54.853-25.686,89.584-99.143,73.224-156.16c-18.97-66.116-95.401-91.109-149.134-58.383
		c-29.584,18.018-50.094,43.387-65.044,73.154c-17.513,34.871-24.809,72.212-22.439,110.965c1.348,22.038,6.757,43.39,19.75,61.975
		c12.353,17.67,26.632,22.862,45.356,7.875c-6.159-5.245-13.05-9.967-18.474-15.951c-15.032-16.586-18.701-37.226-20.335-58.392
		c-2.835-36.72,6.314-70.907,23.621-103.202c13.333-24.879,31.525-45.528,57.862-58.086c30.097-14.352,64.093-7.237,85.761,17.567
		c16.767,19.194,22.058,41.678,18.49,66.151c-4.578,31.396-18.218,58.047-44.888,77.451c-1.558,1.133-3.296,2.993-3.547,4.71
		C960.586,879.815,959.486,890.185,958.16,901.288z M860.585,766.424c10.956,9.437,21.772,17.692,31.288,27.182
		c17.448,17.4,28.539,38.419,30.016,62.845c2.471,40.868-13.93,73.631-49.1,96.236c-28.148,18.092-57.955,18.39-87.379,2.583
		c-5.607-3.013-10.58-8.655-13.683-14.226c-4.68-8.403-0.303-15.181,8.798-18.776c3.122-1.233,6.548-5.293,7.093-8.503
		c1.818-10.714-12.004-19.511-24.864-16.388c-13.63,3.309-22.809,17.885-21.083,33.586c2.382,21.661,14.403,36.947,33.314,47.681
		c44.371,25.184,105.317,14.005,139.787-25.62c28.463-32.72,39.766-70.036,30.794-112.318
		c-8.903-41.954-34.099-72.217-72.676-93.333C868.414,754.302,864.162,760.885,860.585,766.424z M777.413,406.947
		c-10.1-3.458-17.54-9.594-20.617-19.158c-4.359-13.548-9.099-27.244-10.966-41.22c-2.335-17.481-1.635-35.295,5.333-52.155
		c5.917-14.317,15.836-20.52,31.58-21.02c11.355-0.36,21.73,2.316,31.766,7.13c6.644,3.187,11.008,0.788,10.066-6.301
		c-0.654-4.925-2.899-10.145-5.909-14.192c-12.678-17.042-31.284-17.678-49.803-14.219c-24.214,4.523-37.033,21.715-44.32,43.257
		c-9.266,27.39-6.698,54.985-0.558,82.545c4.786,21.479,13.98,40.556,31.63,55.001c11.875,9.719,26.557,9.367,37.741-1.152
		c4.214-3.964,8.407-8.162,11.611-12.894c14.725-21.753,26.58-44.683,24.087-71.786c-1.185-12.88-6.873-23.965-19.906-29.54
		c-12.135-5.191-22.705-0.42-31.81,6.962c-2.789,2.261-4.489,7.902-3.859,11.529c0.811,4.668,5.977,4.706,10.361,3.789
		c12.683-2.654,20.537,4.016,19.258,16.614C800.904,371.743,790.155,389.685,777.413,406.947z M868.192,502.761
		c-0.555,0.549-1.109,1.098-1.664,1.647c1.29,0.619,2.729,1.048,3.849,1.884c36.242,27.052,76.477,42.7,122.833,41.655
		c20.382-0.46,39.103-5.423,55.617-17.205c12.218-8.717,18.639-20.479,15.982-35.342c-7.294-40.8-33.559-68.758-66.368-92.298
		c-3.396,8.103-6.574,15.685-9.88,23.574c9.682,9.392,20.182,18.213,28.891,28.475c6.541,7.707,12.335,16.738,15.702,26.118
		c5.921,16.496-1.202,30.007-17.891,36.177c-6.955,2.571-14.637,3.955-22.089,4.455c-31.528,2.117-60.219-6.98-87.433-21.776
		c-3.104-1.688-7.418-2.36-10.978-1.941C885.848,499.231,877.042,501.176,868.192,502.761z M797.911,1014.463
		c-5.656-0.63-10.314-0.833-14.839-1.701c-46.772-8.972-77.487-55.683-66.336-100.886c7.211-29.232,24.861-50.095,53.088-62.477
		c8.472-3.716,11.536-14.8,6.862-23.621c-3.661-6.909-10.256-8.24-19.572-3.25c-41.35,22.145-77.822,69.792-67.859,125.052
		c5.777,32.043,22.193,57.761,51.374,74.636C760.653,1033.795,779.823,1031.206,797.911,1014.463z M331.838,395.821
		c-28.092-1.775-53.357,3.69-72.269,16.602c-28.05,19.15-44.78,45.605-50.757,78.267c-2.378,12.993-0.146,25.381,11.4,34.353
		c22.706,17.644,49.878,23.549,78.336,28.737c-7.449-7.991-14.638-14.803-20.643-22.493c-3.468-4.441-6.549-7.695-12.446-9.355
		c-22.289-6.273-32.695-22.914-25.679-43.033c12.219-35.041,38.265-55.84,76.733-57.203c10.557-0.374,21.211,1.831,31.14,2.787
		C342.786,415.662,337.52,406.118,331.838,395.821z M503.973,1006.053c-0.135,0.044-0.55,0.327-0.923,0.281
		c-26.875-3.291-51.842-12.189-74.297-26.631c-19.039-12.245-38.644-23.067-59.743-31.503c-7.877-3.15-15.211-7.586-22.796-11.429
		c-1.565-0.793-3.147-1.556-5.858-2.895c51.037,70.594,146.105,114.087,222.025,99.786c-6.81-7.095-14.117-13.807-20.292-21.392
		c-6.207-7.626-11.213-16.172-16.946-24.179c-0.834-1.164-2.711-2.049-4.222-2.255c-9.718-1.329-19.469-2.432-31.147-3.844
		C495.09,991,499.539,998.539,503.973,1006.053z M471.204,492.613c-6.265-21.196-16.36-37.753-38.295-46.286
		c-22.902-8.91-40.623-24.866-53.322-45.378c-10.51-16.977-15.195-34.504-0.44-52.333c2.397-2.896,1.486-8.569,1.571-12.968
		c0.021-1.057-2.22-3.182-3.195-3.063c-5.607,0.687-12.595,0.173-16.454,3.24c-15.462,12.288-21.541,28.263-16.025,47.727
		c10.591,37.374,34.367,64.349,69.317,81.798c16.072,8.024,29.552,17.558,35.226,35.427
		C457.115,497.934,464.043,495.317,471.204,492.613z M439.591,281.063c-8.209,2.765-14.028,5.19-20.09,6.672
		c-14.053,3.435-19.196,13.226-20.785,25.996c-4.035,32.416-1.573,64.365,9.104,95.297c4.848,14.044,19.209,18.704,31.596,25.48
		C428.296,383.612,414.038,333.403,439.591,281.063z M522.532,828.462c0,7.677,0.285,15.048-0.107,22.384
		c-0.234,4.381,1.163,6.748,5.217,8.915c10.184,5.443,19.43,12.149,24.642,22.786c2.605,5.316,2.738,10.73-0.978,15.58
		c-3.875,5.056-9.34,6.674-15.682,5.644c-2.647-0.43-5.294-0.95-7.962-1.149c-5.173-0.386-10.37,0.337-12.221,5.728
		c-2.103,6.124,2.228,9.855,7.038,12.729c11.797,7.048,31.858,5.576,43.86-3.076c11.949-8.614,17.267-23.625,12.452-38.364
		C569.809,852.141,547.387,838.556,522.532,828.462z M925.082,747.467c5.553,0,8.935-0.027,12.316,0.005
		c14.025,0.134,25.475,10.201,24.611,23.862c-0.534,8.445-3.457,17.286-7.522,24.815c-3.454,6.396-4.986,11.869-2.89,18.715
		c2.111,6.894,3.581,13.974,5.475,21.546c18.245-16.457,26.763-36.953,29.905-59.908c1.759-12.849,0.22-25.195-7.641-36.224
		c-12.145-17.039-34.838-18.956-49.035-3.797C927.981,738.957,927.22,742.817,925.082,747.467z M899.989,872.346
		c0.002-13.654-2.436-24.328-9.275-33.066c-6.979-8.915-14.515-17.816-27.886-17.071c-5.783,0.322-10.599,2.796-12.518,8.327
		c-1.901,5.477,1.092,9.659,5.375,13.002c1.717,1.34,3.61,2.464,5.346,3.781c10.241,7.77,15.566,18.032,13.612,30.55
		c-1.739,11.134-10.317,15.875-21.138,17.718c-4.431,0.755-5.688,4.105-4.256,8.216c1.689,4.847,5.174,7.032,10.468,7.423
		C877.952,912.572,902.852,895.438,899.989,872.346z M464.641,825.697c-1.213-0.177-2.15-0.448-3.081-0.429
		c-27.32,0.542-54.269-1.672-80.51-9.745c-1.46-0.449-4.498,0.64-5.249,1.894c-3.629,6.064-6.727,12.43-10.413,19.45
		c33.257,11.995,66.453,16.071,101.462,13.935C466.067,841.893,465.364,833.906,464.641,825.697z M319.855,813.104
		c2.283-4.768,4.421-9.241,6.564-13.711c2.267-4.728,2.13-8.8-1.826-13.037c-2.686-2.878-4.501-6.789-5.869-10.528
		c-5.779-15.803,1.318-25.085,18.121-24.081c1.224,0.073,2.601,0.433,3.652,0.03c3.558-1.366,8.624-2.129,10.132-4.75
		c2.675-4.649,0.721-10.019-3.983-13.197c-19.17-12.947-46.055-5.452-51.164,16.565
		C289.468,776.313,299.364,796.437,319.855,813.104z M940.802,403.966c1.93-4.654,3.876-8.681,5.286-12.878
		c3.449-10.261,2.061-13.848-7.493-18.787c-6.645-3.435-13.284-7.141-20.365-9.452c-10.889-3.554-22.154-6.016-33.659-9.046
		c-1.685,10.695-3.043,19.31-4.494,28.514C901.568,386.005,922.488,390.408,940.802,403.966z M552.365,165.733
		c14.858,9.695,27.784,18.228,40.825,26.591c5.501,3.528,11.196,3.017,16.482-0.554c5.303-3.583,9.291-8.556,8.378-14.947
		c-1.093-7.65-2.609-15.674-11.085-19.609c-0.318-0.148-0.889,0.221-1.497,0.393c-0.759,5.12-0.901,10.499-2.555,15.392
		c-0.838,2.477-4.408,4.078-6.743,6.075c-1.932-2.343-4.955-4.453-5.547-7.082c-0.938-4.168-0.25-8.683-0.25-13.387
		C578.383,160.853,566.235,163.131,552.365,165.733z M672.25,157.548c-8.586,2.413-14.505,13.723-12.209,22.924
		c3.071,12.305,16.686,17.961,27.42,10.805c11.951-7.968,23.384-16.671,36.197-25.885c-12.986-2.292-24.88-4.39-37.3-6.582
		c0,4.852,0.601,9.453-0.236,13.79c-0.465,2.41-3.328,4.382-5.111,6.551c-2.183-1.869-5.581-3.378-6.298-5.68
		C673.181,168.543,673.033,163.206,672.25,157.548z M388.172,888.955c-0.158,1.047-0.316,2.095-0.475,3.142
		c4.586,2.528,8.911,6.349,13.818,7.291c8.058,1.548,16.515,1.827,24.764,1.543c10.114-0.349,17.429-8.201,16.506-16.417
		c-0.934-8.32-8.957-13.952-19.525-10.756C411.12,877.429,399.831,883.773,388.172,888.955z M639.053,830.967
		c8.996-12.897,18.509-26.536,27.617-39.595c-17.635,0-36.315,0-53.945,0C621.304,804.273,630.37,817.909,639.053,830.967z
		 M361.864,500.058c0-9.943,0.517-19.462-0.167-28.899c-0.528-7.284-6.391-12.055-13.021-12.241
		c-6.195-0.174-13.458,5.37-15.064,11.498C329.839,484.811,342.866,499.419,361.864,500.058z M965.962,501.633
		c10.822,1.353,18.948-1.04,24.533-8.745c4.668-6.44,6.034-13.938,1.274-20.696c-2.289-3.25-6.796-6.486-10.609-6.882
		c-4.856-0.504-9.318,2.846-10.348,8.327C969.105,482.718,967.644,491.842,965.962,501.633z M690.109,1057.695
		c4.93-6.932,5.791-11.439,1.937-18.076c-6.608-11.379-13.82-22.425-20.724-33.523
		C666.516,1028.404,671.326,1043.668,690.109,1057.695z M587.802,1056.277c17.221-8.998,26.658-34.006,18.819-48.128
		c-5.792,8.503-11.655,17.41-17.837,26.102C583.106,1042.235,582.65,1048.675,587.802,1056.277z M801.896,617.405
		c0,11.552,0,23.08,0,33.785c9.91-5.486,19.689-10.899,28.307-15.67C821.227,629.776,811.798,623.742,801.896,617.405z
		 M476.515,616.998c-10.001,6.233-19.365,12.069-28.451,17.732c9.436,5.351,18.769,10.645,28.451,16.136
		C476.515,639.411,476.515,628.35,476.515,616.998z M197.911,653.081c8.076-5.673,15.042-10.567,21.926-15.403
		c-6.746-7.101-13.04-13.725-19.879-20.924C190.524,628.441,195.19,640.215,197.911,653.081z M1077.817,618.976
		c-7.185,5.983-14.014,11.669-20.692,17.23c7.483,5.791,15.227,11.784,23.896,18.493
		C1081.472,642.079,1087.839,630.156,1077.817,618.976z"/>
	<path fill="#003366" d="M768.025,635.808c-0.26-70.411-58.903-123.302-126.547-128.394
		c-60.644-4.565-132.147,52.797-131.411,128.116c0.604,61.833,51.114,127.66,130.937,126.733
		C710.934,761.452,767.536,706.202,768.025,635.808z M638.562,448.182c-5.519,11.439-11.045,22.893-17.43,36.129
		c11.823-7.95,22.789-10.765,34.026-1.963C649.607,470.919,644.055,459.49,638.562,448.182z"/>
	<path fill="#003366" d="M793.898,557.85c-0.212,0.018-0.424,0.036-0.636,0.054c0.148-0.188,0.296-0.376,0.444-0.565
		c0.027,0.209,0.053,0.419,0.08,0.629L793.898,557.85z"/>
	<path fill="#003366" d="M768.025,635.808c-0.488,70.394-57.091,125.644-127.02,126.456c-79.823,0.927-130.333-64.9-130.937-126.733
		c-0.736-75.319,70.767-132.681,131.411-128.116C709.121,512.506,767.765,565.397,768.025,635.808z"/>
	<path fill="#003366" d="M638.562,448.182c5.492,11.307,11.044,22.736,16.596,34.166c-11.237-8.801-22.203-5.987-34.026,1.963
		C627.518,471.075,633.044,459.621,638.562,448.182z"/>
</g>
</svg>
