<?xml version="1.0" encoding="utf-8"?>
<!-- Generator: Adobe Illustrator 17.0.2, SVG Export Plug-In . SVG Version: 6.00 Build 0)  -->
<!DOCTYPE svg PUBLIC "-//W3C//DTD SVG 1.1//EN" "http://www.w3.org/Graphics/SVG/1.1/DTD/svg11.dtd">
<svg version="1.1" id="Layer_1" xmlns="http://www.w3.org/2000/svg" xmlns:xlink="http://www.w3.org/1999/xlink" x="0px" y="0px"
	 width="1280px" height="1280px" viewBox="0 0 1280 1280" enable-background="new 0 0 1280 1280" xml:space="preserve">
<g>
	<path fill="#003366" d="M1249.558,661.078c-1.721,116.953-41.477,232.491-120.1,334.34
		c-89.195,115.544-207.199,190.02-351.182,224.851c-57.519,13.915-116.231,18.803-175.431,15.537
		c-53.318-2.94-105.071-14.323-155.533-30.949c-102.06-33.626-188.97-89.805-261.14-167.728
		C117.6,963.093,71.114,877.651,46.152,781.032c-8.237-31.881-14.124-64.194-14.934-97.085c-0.742-30.117-1.891-60.397,0.331-90.381
		c7.2-97.139,37.347-187.456,89.687-270.505c24.953-39.594,53.155-76.919,87.698-109.208
		c70.604-65.995,151.768-115.044,245.418-143.868c32.138-9.892,64.866-16.73,98.297-21.148c38.387-5.072,76.921-6.713,115.432-4.91
		c25.988,1.216,51.865,5.591,77.674,9.323c44.211,6.392,86.882,18.572,128.103,35.209c78.233,31.576,147.127,76.774,206.296,135.904
		c77.579,77.527,128.113,169.518,153.757,274.516C1246.059,548.61,1250.79,599.274,1249.558,661.078z M1191.281,859.972
		c-12.268,5.087-24.658,9.917-36.76,15.354c-7.507,3.373-10.46,10.349-13.202,18.638c10.792-3.801,20.511-7.215,30.225-10.646
		c11.344-4.006,16.894-12.606,19.569-23.473c0.174-0.048,0.367-0.067,0.51-0.158c0.047-0.029-0.036-0.25-0.06-0.384
		C1191.47,859.525,1191.376,859.748,1191.281,859.972z M1186.84,636.975c0.911-39.704-3.609-80.021-13.328-119.457
		c-30.872-125.258-97.793-228.466-203.728-306.193c-88.263-64.76-188.14-100.092-298.711-106.667
		c-51.63-3.07-102.598,0.296-153.049,11.313c-128.848,28.135-233.632,93.626-313.956,195.165
		C138.013,394.634,101.806,490.024,92.81,595.046c-3.674,42.887-2.101,85.75,4.383,128.316
		c7.475,49.076,21.803,96.308,43.577,141.189c52.156,107.51,132.345,189.34,238.932,247.129
		c79.662,43.191,165.328,63.74,255.977,65.427c39.799,0.741,79.316-3.715,118.084-12.486
		c141.638-32.04,254.446-106.174,337.871-222.101C1157.33,851.23,1187.005,748.959,1186.84,636.975z M793.884,78.531
		c20.639,35.298,28.742,43.417,43.665,43.856C829.257,102.051,822.188,80.723,793.884,78.531z M751.854,68.448
		c6.266,9.238,12.197,17.552,17.659,26.149c6.409,10.09,15.615,15.009,28.943,15.465c-6.188-9.469-12.083-18.267-17.741-27.208
		C774.304,72.72,764.186,69.827,751.854,68.448z M989.535,167.796c1.967,35.023,4.326,46.041,19.956,54.33
		c0-8.216-0.032-16.32,0.007-24.424C1009.566,183.787,1002.595,174.333,989.535,167.796z M878.475,106.617
		c12.35,37.753,17.005,44.671,33.504,49.608C906.984,135.76,904.635,113.993,878.475,106.617z M1016.452,1090.925
		c-0.316-0.872-0.632-1.744-0.948-2.617c-12.911-0.842-25.811-1.984-38.737-2.425c-9.204-0.314-16.798,3.581-24.427,12.422
		c16.048,0.902,30.433,2.836,44.65,2.013C1003.645,1099.932,1009.974,1094.221,1016.452,1090.925z M952.994,145.404
		c2.858,12.75,5.003,24.783,8.373,36.48c2.233,7.752,8.382,12.893,16.198,16.379C978.26,174.697,974.776,151.852,952.994,145.404z
		 M332.358,142.037c20.478,5.13,39.924,15.577,60.591,0.203c-10.142-2.94-19.852-5.527-29.405-8.584
		C351.739,129.88,341.761,132.299,332.358,142.037z M438.53,1186.177c-7.053-25.113-22.434-44.542-39.357-48.679
		c5.132,11.254,9.822,21.984,14.895,32.539C418.869,1180.024,427.319,1185.123,438.53,1186.177z M916.835,125.017
		c3.065,10.05,6.479,19.78,8.951,29.732c2.759,11.11,10.792,16.944,20.538,22.138c-0.948-6.008-1.852-11.44-2.655-16.886
		C941.294,143.887,936.046,129.804,916.835,125.017z M838.125,90.32c4.503,9.908,8.974,19.217,12.982,28.71
		c4.391,10.399,12.264,16.338,24.526,18.898c-3.793-9.74-7.25-18.91-10.931-27.993C859.987,98.301,849.998,93.432,838.125,90.32z
		 M1073.39,990.929c13.667-2.047,25.865-3.29,37.77-5.832c10.502-2.242,15.798-8.095,18.985-18.556
		C1110.242,971.852,1087.154,968.46,1073.39,990.929z M481.614,1199.644c-6.923-10.8-13.65-20.783-19.823-31.081
		c-5.145-8.583-13.358-11.563-24.187-14.196c6.268,11.25,11.817,21.078,17.235,30.974
		C460.345,1195.397,469.513,1198.937,481.614,1199.644z M1017.954,1046.194c0.115,0.763,0.229,1.527,0.343,2.29
		c13.859-0.73,27.803-0.795,41.546-2.444c8.05-0.965,12.425-7.926,17.998-15.172
		C1055.706,1033.049,1033.59,1028.307,1017.954,1046.194z M252.737,1079.58c0.146-31.971-6.112-50.01-19.304-56.348
		C232.971,1061.218,235.705,1067.119,252.737,1079.58z M45.375,599.668c10.512-9.586,19.908-17.666,28.695-26.33
		c6.359-6.268,8.283-14.46,8.342-24.7C65.865,563.205,44.124,572.137,45.375,599.668z M724.785,1186.196
		c9.154,5.602,17.572,10.709,25.943,15.887c11.199,6.924,22.522,6.012,34.819,0.717c-10.517-5.216-20.619-9.579-30.026-15.07
		C745.633,1181.959,735.946,1182.093,724.785,1186.196z M757.166,97.727c-8.723-9.908-16.93-20.318-26.373-29.525
		c-5.166-5.037-12.869-5.906-21.23-4.667c7.113,9.062,13.753,17.435,20.295,25.879C736.472,97.953,745.988,98.733,757.166,97.727z
		 M78,588.924c-26.979,19.09-36.046,32.869-32.904,51.642c7.493-7.66,13.778-15.232,21.254-21.443
		C76.006,611.1,79.309,601.365,78,588.924z M1206.316,820.728c-36.768,15.575-45.863,23.378-48.31,38.012
		c8.675-3.679,16.932-7.565,25.477-10.716C1196.351,843.28,1203.667,834.346,1206.316,820.728z M228.818,217.679
		c11.801,0,22.729-0.224,33.643,0.063c10.819,0.285,18.78-4.761,27.043-12.485c-10.066-0.875-18.986-1.428-27.846-2.473
		C247.917,201.165,237.136,205.594,228.818,217.679z M477.547,1168.801c12.642,28.03,25.41,39.238,45.469,39.797
		c-5.705-7.842-11.634-15.338-16.825-23.291C499.451,1174.981,489.849,1169.996,477.547,1168.801z M430.774,125.138
		c-13.478-3.819-25.649-6.976-37.616-10.75c-9.582-3.023-16.5,1.883-25.52,6.377c10.933,3.48,20.456,6.006,29.568,9.537
		C408.857,134.817,419.098,132.387,430.774,125.138z M578.258,60.921c6.765,5.845,12.272,10.883,18.097,15.541
		c4.377,3.501,8.971,6.827,13.814,9.674c7.739,4.549,12.458,4.515,20.912,0.808C607.906,62.117,601.292,58.713,578.258,60.921z
		 M1230.795,700.213c-27.196,19.22-39.83,30.896-37.155,46.967c9.325-7.243,18.346-14.306,27.429-21.293
		C1229.485,719.417,1232.471,710.991,1230.795,700.213z M671.661,88.342c-8.282-8.674-16.668-18.026-25.707-26.732
		c-6.408-6.173-14.656-3.959-23.093-3.534C644.42,81.489,655.245,93.363,671.661,88.342z M979.566,1113.923
		c-21.102-0.864-41.883-13.051-61.223,4.262c7.177,1.584,13.714,3.323,20.362,4.432
		C952.951,1124.995,967.572,1128.61,979.566,1113.923z M287.158,1105.519c-1.959-11.462-3.634-22.81-5.899-34.044
		c-1.902-9.437-7.617-16.341-17.285-21.48c1.128,9.397,2.391,17.808,3.094,26.266
		C268.175,1089.568,273.381,1100.049,287.158,1105.519z M1039.532,251.411c0-11.323-0.431-21.194,0.111-31.015
		c0.652-11.835-5.587-19.236-15.089-25.35C1023.259,230.519,1020.879,232.158,1039.532,251.411z M1174.584,383.608
		c-0.506,0.81-1.156,1.518-1.434,2.345c-3.649,10.885-7.159,21.816-10.884,32.676c-3,8.748,0.337,15.971,4.992,23.733
		C1184.05,400.024,1184.467,396.62,1174.584,383.608z M205.987,992.09c-1.33,22.229-7.946,44.329,15.779,59.804
		C216.891,1031.725,225.152,1009.363,205.987,992.09z M256.314,232.092c-11.832,0-23.412-0.605-34.895,0.173
		c-11.136,0.755-18.235,7.878-23.744,17.163c8.861-0.917,17.13-1.497,25.308-2.681C235.267,244.967,248.539,245.142,256.314,232.092
		z M1184.04,785.506c9.437-6.074,18.197-12.437,27.646-17.604c10.868-5.942,14.235-15.119,14.74-26.382
		C1201.686,754.436,1184.016,768.816,1184.04,785.506z M765.949,1177.436c11.246,5.565,21.774,10.589,32.12,15.948
		c9.958,5.157,19.02,3.091,28.526-2.653c-10.56-4.529-20.852-8.385-30.596-13.279
		C786.246,1172.551,776.903,1172.643,765.949,1177.436z M640.682,1192.293c10.614,7.971,19.741,14.856,28.904,21.695
		c8.84,6.597,18.464,6.588,30.332,2.904C680.169,1207.796,667.625,1187.442,640.682,1192.293z M1203.13,628.843
		c0.645,0.272,1.29,0.544,1.935,0.816c7.659-8.5,15.509-16.844,22.919-25.546c6.377-7.489,6.603-16.115,3.495-26.506
		C1219.489,594.373,1199.143,605.334,1203.13,628.843z M883.525,1136.741c10.296,3.236,19.918,6.441,29.655,9.274
		c11.763,3.422,21.576-0.227,30.845-8.604c-12.24-2.545-23.597-4.828-34.912-7.287
		C899.879,1128.118,891.8,1130.326,883.525,1136.741z M1153.964,932.857c-36.027,6.397-48.496,12.34-54.385,25.704
		C1134.987,955.368,1145.924,950.289,1153.964,932.857z M1197.847,706.513c0.572,0.316,1.145,0.632,1.717,0.949
		c8.156-6.671,16.085-13.632,24.529-19.937c9.673-7.223,11.544-16.503,9.321-28.207
		C1218.359,673.482,1200.061,684.379,1197.847,706.513z M143.439,318.166c11.414-2.87,22.036-5.848,32.808-8.164
		c10.716-2.303,17.287-8.828,22.272-18.947C177.84,296.502,154.139,293.699,143.439,318.166z M1172.077,823.471
		c11.688-6.71,22.192-12.52,32.459-18.704c8.538-5.142,11.466-13.311,12.499-24.123c-10.842,6.667-20.271,12.8-30.037,18.375
		C1177.631,804.367,1175.175,813.292,1172.077,823.471z M295.121,164.085c20.873,3.164,40.455,13.373,59.536-2.714
		c-8.899-2.255-17.286-4.136-25.517-6.523C316.411,151.157,306.12,155.609,295.121,164.085z M59.299,515.7
		c9.799-6.822,19.698-13.513,29.366-20.508c8.031-5.811,11.014-14.219,12.513-25.169C83.342,483.15,61.918,490.672,59.299,515.7z
		 M105.328,821.079c-3.607,9.062-6.236,17.193-10.002,24.788c-6.147,12.393-4.265,23.876,3.121,36.264
		C102.606,861.757,118.743,843.929,105.328,821.079z M328.884,1099.092c3.538,12.582,6.346,23.979,9.995,35.115
		c3.072,9.378,11.332,13.458,20.444,16.896C347.742,1111.825,346.276,1107.852,328.884,1099.092z M1195.889,555.614
		c6.367-9.069,11.384-16.579,16.784-23.819c7.385-9.9,10.965-20.196,4.249-32.661
		C1206.534,516.332,1190.341,530.899,1195.889,555.614z M264.211,187.499c34.065,8.674,43.685,7.177,55.835-4.462
		C300.384,173.729,277.919,175.329,264.211,187.499z M68.369,803.306c6.392-19.586,27.072-33.775,16.475-58.562
		c-5.544,9.251-10.461,17.587-15.509,25.846C63.106,780.78,62.355,791.188,68.369,803.306z M468.241,111.573
		c-10.648-4.332-20.285-7.961-29.662-12.144c-11.146-4.974-20.74-0.84-31.36,3.898c9.221,3.393,17.677,6.093,25.774,9.583
		C444.492,117.868,455.685,118.383,468.241,111.573z M74.993,666.878c-6.433,8.321-12.343,15.198-17.36,22.645
		c-6.443,9.563-12.961,19.421-6.327,32.919C61.049,704.732,81.996,692.773,74.993,666.878z M398.938,1170.471
		c-13.477-32.216-18-47.046-34.136-48.681c3.227,9.643,6.736,19.132,9.538,28.815c2.188,7.564,7.081,12.29,14.111,15.383
		C391.652,1167.399,394.886,1168.742,398.938,1170.471z M115.718,434.06c-27.257,8.829-47.025,21.71-44.961,38.961
		C86.704,460.82,109.73,457.288,115.718,434.06z M450.884,89.131c10.652,5.257,20.408,10.408,30.461,14.933
		c9.226,4.153,18.118,1.766,27.934-2.714c-9.111-4.43-17.502-7.786-25.103-12.379C473.251,82.368,462.751,83.129,450.884,89.131z
		 M741.168,1211.51c-10.363-6.203-20.372-12.223-30.413-18.192c-7.994-4.752-16.337-6.376-26.448-2.038
		c9.197,6.387,17.817,12.31,26.368,18.327C720.219,1216.323,730.202,1216.396,741.168,1211.51z M92.68,783.118
		c-6.556,19.679-22.646,36.675-10.859,59.662c3.989-8.391,7.554-16.162,11.356-23.822C98.857,807.513,100.351,796.074,92.68,783.118
		z M665.997,59.649c9.564,9.839,18.295,19.223,27.501,28.141c5.447,5.277,12.485,5.191,20.903,3.825
		c-7.023-8.014-13.448-15.049-19.527-22.357C687.646,60.569,678.675,56.943,665.997,59.649z M139.812,954.49
		c2.156-20.518,13.326-39.881-1.759-59.834C131.471,914.948,122.84,934.271,139.812,954.49z M190.809,1019.801
		c3.783-35.693,2.207-45.02-9.855-56.751c-0.745,4.514-1.433,8.736-2.142,12.957C176.092,992.196,174.425,1008.123,190.809,1019.801
		z M987.534,1073.316c14.74,0,28.634,0.226,42.515-0.091c7.469-0.171,11.8-5.474,16.598-11.031
		C1025.647,1061.167,1004.536,1054.767,987.534,1073.316z M1152.296,404.552c3.565-10.141,6.778-19.87,10.408-29.448
		c4.001-10.554,0.358-18.936-7.363-27.283c-3.031,10.365-5.706,20.073-8.722,29.679
		C1143.564,387.232,1144.819,396.012,1152.296,404.552z M45.201,682.029c9.002-10.597,17.128-19.881,24.918-29.427
		c5.527-6.773,7.063-14.505,4.494-24.386C60.875,644.682,41.07,656.229,45.201,682.029z M297.534,1076.509
		c2.078,31.267,6.571,47.542,24.685,52.01C315.48,1110.352,318.561,1088.824,297.534,1076.509z M518.795,1181.37
		c8.368,9.376,16.51,18.954,25.174,28.062c6.802,7.15,11.83,8.198,22.488,6.111c-7.199-8.197-14.444-16.147-21.335-24.378
		C538.62,1183.398,530.092,1180.409,518.795,1181.37z M1105.117,1000.571c-27.194,2.237-51.383,3.499-55.891,19.15
		C1069.213,1017.372,1091.948,1022.41,1105.117,1000.571z M164.801,987.957c0.817-15.008,2.365-28.615,1.905-42.157
		c-0.19-5.589-4.692-11.039-7.233-16.552c-0.745,0.299-1.491,0.598-2.236,0.896c-1.468,8.622-2.98,17.236-4.393,25.866
		C150.891,967.927,153.579,978.386,164.801,987.957z M493.011,75.473c21.289,17.416,39.321,23.385,56.18,18.163
		c-8.019-5.03-15.759-9.5-23.067-14.563C515.862,71.965,505.222,69.63,493.011,75.473z M865.865,1176.998
		c-11.544-4.679-21.828-9.306-32.448-13.029c-11.789-4.133-15.593-3.436-26.592,2.787c10.669,4.589,20.793,8.84,30.826,13.29
		C847.083,1184.231,855.888,1182.773,865.865,1176.998z M89.59,511.461c-23.83,13.174-42.322,30.956-37.645,44.297
		c8.232-6.219,16.499-12.432,24.729-18.691C85.166,530.608,90.017,522.404,89.59,511.461z M1084.486,251.841
		c-1.108,7.854-2.079,14.922-3.105,21.984c-1.834,12.625-1.76,24.673,11.15,33.991c1.139-12.335,2.171-23.958,3.297-35.571
		C1096.703,263.217,1092.603,256.863,1084.486,251.841z M120.317,858.588c-5.427,20.25-20.384,39.022-2.102,60.289
		C119.687,898.522,134.047,879.954,120.317,858.588z M84.054,432.856c11.827-6.024,22.774-11.509,33.63-17.16
		c7.954-4.14,11.593-11.202,14.132-19.834C98.348,409.677,88.282,412.41,84.054,432.856z M1205.876,460.39
		c-7.013,18.03-25.402,31.88-16.517,55.839c6.445-10.578,11.995-19.859,17.719-29.037
		C1212.584,478.365,1211.883,469.792,1205.876,460.39z M100.553,393.099c10.18-3.954,19.402-7.849,28.852-11.124
		c10.997-3.811,18.223-10.721,21.5-23.296C132.284,368.381,108.352,368.32,100.553,393.099z M846.789,1152.076
		c27.304,13.642,43.362,17.751,57.777,6.275C885.1,1154.686,867.779,1139.015,846.789,1152.076z M1233.325,621.079
		c-22.609,19.484-35.156,33.783-30.624,48.917c6.859-6.785,13.144-13.667,20.15-19.766
		C1231.859,642.391,1236.784,633.472,1233.325,621.079z M78.712,706.534c-5.405,7.871-10.055,14.51-14.554,21.245
		c-2.317,3.468-4.523,7.025-6.497,10.686c-3.359,6.231-3.214,16.717,0.437,22.467C67.54,743.97,86.601,731.141,78.712,706.534z
		 M591.066,88.639c-9.316-6.835-17.742-12.737-25.841-19.037c-8.018-6.237-16.499-6.529-27.256-2.742
		C554.824,77.167,565.868,96.474,591.066,88.639z M1172.464,896.906c-12.35,4.422-23.886,8.303-35.214,12.693
		c-7.774,3.013-11.529,9.834-15.864,16.963c8.294-1.995,15.659-3.516,22.868-5.557
		C1156.909,917.419,1169.579,913.642,1172.464,896.906z M1133.443,371.549c3.795-13.041,7.653-24.269,10.215-35.77
		c1.931-8.668-2.581-15.709-9.463-22.657C1132.751,332.699,1119.246,350.684,1133.443,371.549z M654.492,1219.835
		c-18.207-9.948-27.041-32.507-53.019-27.687C617.262,1204.984,627.226,1225.338,654.492,1219.835z M1065.679,277.086
		c0.821-10.949,1.598-20.796,2.288-30.65c0.722-10.301-3.413-18.29-14.104-25.42c0,11.225,0.568,21.063-0.156,30.809
		C1052.945,262.085,1057.471,269.48,1065.679,277.086z M609.816,1219.927c-7.24-7.513-14.586-14.648-21.339-22.281
		c-6.915-7.816-15.659-10.088-25.993-10.09C582.272,1214.314,591.532,1223.204,609.816,1219.927z M168.839,282.804
		c37.312-4.73,48.121-8.986,55.081-22.162C203.443,263.758,180.98,260.53,168.839,282.804z M120.767,354.461
		c12.92-4.132,24.609-7.566,36.059-11.637c8.153-2.9,13.035-9.132,16.33-18.347C153.783,332.081,130.811,330.62,120.767,354.461z
		 M1111.156,280.731c-2.193,20.401-13.123,39.34,3,59.214c2.157-12.208,3.766-22.995,6.035-33.649
		C1122.235,296.686,1118.163,289.396,1111.156,280.731z M1180.254,477.756c16.301-22.821,19.994-40.143,11.681-54.789
		C1176.503,448.474,1173.272,463.63,1180.254,477.756z M1225.967,539.068c-17.791,20.822-31.303,40.939-23.605,53.263
		C1212.916,575.595,1231.748,562.825,1225.967,539.068z"/>
	<path fill="#003366" d="M1109.941,827.516c0.08-0.19,0.161-0.38,0.241-0.571c0.02,0.114,0.09,0.302,0.051,0.328
		c-0.123,0.078-0.287,0.095-0.435,0.136L1109.941,827.516z"/>
	<path fill="#003366" d="M625.324,197.566c112.199-0.337,201.136,28.781,281.141,84.53
		c66.051,46.025,114.398,105.989,147.315,178.08c17.251,37.781,28.684,77.089,34.279,118.081
		c4.838,35.445,5.479,71.023,1.974,106.49c-8.634,87.388-41.493,165.419-98.463,233.515
		c-61.566,73.589-139.629,123.185-233.136,149.568c-43.471,12.266-88.099,17.657-133.267,15.919
		c-94.163-3.621-179.266-33.29-254.9-87.905c-67.452-48.706-117.349-111.143-149.848-186.574
		c-15.133-35.123-25.035-71.638-30.224-109.475c-3.892-28.372-4.833-56.86-3.082-85.231c6.015-97.464,39.846-184.838,104.295-260.02
		c63.509-74.083,144.12-122.119,240.242-145.375C566.806,200.663,602.608,197.197,625.324,197.566z M638.914,233.446
		c-1.432-3.549-2.473-5.888-3.326-8.29c-2.203-6.204-6.012-10.017-13.352-9.69c-16.178,0.719-32.531,0.007-48.517,2.059
		c-37.405,4.802-73.124,15.678-107.71,30.501c-88.34,37.863-152.321,99.331-190.725,185.644
		c-14.537,32.671-23.128,67.087-27.161,102.368c-2.032,17.777-1.589,35.857-1.618,53.802c-0.014,8.63,1.924,17.249,2.195,25.896
		c1.147,36.713-0.653,73.577,5.234,110.047c4.983,30.869,14.477,60.514,29.739,88.01c23.72,42.734,56.036,78.699,93.987,110.058
		c40.686,33.619,85.693,59.752,136.718,75.52c33.037,10.21,66.799,17.352,101.459,18.982c25.725,1.21,51.491,0.855,77.097-3.177
		c28.528-4.493,56.881-9.642,83.919-19.869c82.767-31.305,149.647-82.342,200.774-153.15c30.109-41.699,45.489-88.465,50.12-138.563
		c2.323-25.135,1.139-50.573,1.641-75.873c0.129-6.52,0.227-13.083,1.045-19.541c3.371-26.629,3.015-53.144-0.925-79.716
		c-5.247-35.387-14.04-69.756-29.366-102.36c-23.492-49.978-56.269-93.091-100.619-127.384
		c-43.855-33.912-93.559-56.583-147.369-70.915c-32.351-8.617-65.175-14.007-98.944-12.121c-5.03,0.281-7.9,2.387-9.664,6.605
		C642.118,225.693,640.714,229.107,638.914,233.446z M311.36,876.312c-1.046-0.012-2.091-0.025-3.137-0.037
		c-1.05,5.54-2.339,11.049-3.105,16.626c-2.411,17.547,3.481,25.486,21.268,29.474c5.866,1.316,11.656,3.004,17.403,4.762
		c7.201,2.202,11.114,7.287,13.063,14.271c2.096,7.513-1.94,13.249-6.177,20.706c6.74,1.415,12.793,3.18,18.97,3.824
		c4.747,0.495,9.707-1.028,14.47-0.588c10.87,1.003,19.216,5.773,22.588,16.689c1.449,4.691,2.931,9.375,4.509,14.026
		c4.583,13.503,13.976,22.282,27.83,26.573c9.738,3.017,20.663-0.188,25.569-7.877c-7.033-0.699-13.784-1.371-20.536-2.042
		c-10.329-1.025-17.951-5.921-21.839-15.385c-1.775-4.32-2.855-8.977-3.71-13.577c-2.13-11.44-8.328-19.563-19.802-23.169
		c-6.487-2.039-13.156-3.829-19.886-4.768c-10.79-1.506-12.865-3.824-14.241-13.959c-0.671-4.942-3.132-10.17-6.261-14.173
		c-6.967-8.913-17.414-12.196-28.292-14.594c-15.784-3.48-20.3-10.815-17.512-26.118
		C313.146,883.596,311.801,879.875,311.36,876.312z M927.209,960.919c-1.245-2.276-2.421-4.303-3.48-6.386
		c-5.504-10.837-1.874-21.982,9.353-27.252c4.66-2.187,9.893-3.194,14.81-4.89c6.975-2.407,14.224-4.36,20.705-7.703
		c3.127-1.613,6.333-5.755,6.794-9.105c1.412-10.272-1.504-20.033-6.245-29.513c-4.768,4.668-4.768,4.668-2.747,9.75
		c3.388,8.52-0.604,19.907-8.929,23.988c-4.073,1.996-8.588,3.442-13.07,4.285c-17.964,3.379-28.355,10.729-30.51,30.427
		c-0.889,8.124-4.587,10.881-13.328,11.205c-26.032,0.964-37.176,12.23-40.785,31.065c-0.257,1.34-0.791,2.629-1.132,3.957
		c-3.889,15.124-13.905,22.766-30.101,23.185c-5.148,0.133-10.285,0.701-15.427,1.07c12.125,10.385,21.457,10.88,34.345,4.084
		c11.524-6.076,17.711-15.547,21.015-27.581c1.632-5.946,3.672-12.239,7.308-17.117c8.015-10.752,20.108-10.646,32.032-8.54
		C915.233,967.157,921.24,965.218,927.209,960.919z M234.148,635.494c-5.913-7.398-11.857-14.604-17.526-22.008
		c-3.932-5.135-5.615-11.079-3.643-17.311c1.898-6-1.523-8.949-5.83-12.383c-0.943,4.011-1.388,7.527-2.603,10.769
		c-3.641,9.711-1.372,18.623,3.616,27.103c2.505,4.259,5.397,8.365,8.602,12.15c2.358,2.784,1.798,4.647-0.243,7.165
		c-3.999,4.937-8.014,9.912-11.427,15.234c-4.045,6.308-4.719,13.281-2.409,20.462c3.882,12.072,17.971,18.073,26.65,11.326
		c5.909-4.594,8.039-23.242,3.045-28.749c-0.918-1.012-3.249-1.479-4.661-1.142c-0.832,0.198-1.601,2.48-1.589,3.817
		c0.025,2.711,0.805,5.411,0.9,8.129c0.128,3.684-0.187,7.353-5.266,7.746c-4.222,0.327-8.682-3.228-7.971-7.67
		c0.874-5.46,2.477-11.207,5.393-15.864C223.356,647.603,229.003,641.814,234.148,635.494z M1070.084,583.064
		c-3.503,2.829-6.879,6.137-5.232,10.915c2.865,8.305,0.024,15.219-4.835,21.518c-5.083,6.589-10.834,12.689-16.717,19.494
		c2.475,2.78,5.307,5.804,7.955,8.974c4.078,4.883,8.877,9.448,11.744,14.95c1.98,3.8,2.172,9.144,1.283,13.429
		c-0.458,2.206-5.026,3.603-7.737,5.365c-1.725-2.618-3.864-5.077-5.014-7.916c-0.651-1.61,0.685-3.883,0.462-5.784
		c-0.225-1.923-1.269-3.753-1.955-5.626c-1.866,1.251-5.263,2.421-5.337,3.767c-0.374,6.758-0.769,13.734,0.568,20.301
		c1.257,6.172,7.99,9.311,14.241,8.375c7.633-1.143,15.133-8.928,16.234-16.444c1.493-10.196-1.672-19.071-7.757-27.125
		c-2.946-3.9-6.223-7.562-9.487-11.498C1072.261,620.016,1082.356,603.83,1070.084,583.064z M622.218,1072.029
		c0.896,0,2.956,0.22,4.951-0.039c7.643-0.994,14.91-2.917,18.149-10.74c0.671-1.621,0.33-4.809-0.821-5.687
		c-1.531-1.168-4.37-1.192-6.539-0.914c-1.376,0.176-2.635,1.714-3.812,2.782c-7.188,6.52-15.881,7.332-23.529,1.335
		c-5.65-4.431-11.256-9.205-15.732-14.713c-13.243-16.298-31.287-20.599-51.204-20.449c-1.888,0.014-3.755,2.625-5.631,4.031
		c1.857,2.127,3.324,5.249,5.673,6.123c2.816,1.049,6.511,0.726,9.604,0.043c10.539-2.326,18.702,1.911,25.632,8.753
		c4.809,4.749,9.042,10.126,13.042,15.564C599.204,1067.913,608.803,1072.532,622.218,1072.029z M997.522,833.966
		c7,2.219,10.28-1.187,13.857-5.957c3.061-4.083,7.581-7.452,12.103-10.078c4.061-2.358,9.001-3.282,13.559-4.821
		c5.269-1.779,8.808-5.039,10.856-10.279c3.027-7.745,3.089-15.359,0.329-23.066c-2.387-6.665-5.172-13.207-7.296-19.948
		c-1.673-5.308-0.705-9.956,4.76-13.316c2.212-1.36,3.935-3.991,5.003-6.411c0.659-1.493,0.283-4.239-0.794-5.372
		c-0.824-0.867-3.653-0.557-5.28,0.036c-8.378,3.056-10.777,10.06-11.538,17.805c-1.044,10.623,1.034,20.639,5.896,30.315
		c5.013,9.977,1.827,17.866-8.426,22.813c-1.979,0.955-4.001,1.939-6.119,2.491C1010.576,811.788,1003.421,821.927,997.522,833.966z
		 M280.129,834.109c-4.742-13.053-13.666-21.047-26.573-26.014c-18.353-7.064-20.405-12.553-12.52-30.244
		c3.479-7.807,4.92-15.749,4.235-24.122c-0.681-8.308-2.199-16.325-11.845-19.256c-1.645-0.499-3.891,0.876-5.859,1.385
		c1.565,3.55,2.15,8.465,4.914,10.348c4.855,3.308,6.428,7.021,5.031,11.968c-1.433,5.076-3.835,9.883-5.54,14.897
		c-1.441,4.241-3.637,8.636-3.524,12.913c0.606,23.047,4.333,24.926,20.945,29.822c7.389,2.177,14.58,5.235,18.164,12.644
		C270.078,833.66,273.771,835.848,280.129,834.109z M1051.324,550.868c15.248-20.781-3.477-72.921-23.409-94.779
		c3.893,14.448,8.289,29.26,11.792,44.271c2.45,10.498,5.37,21.339,4.893,31.89C1044.25,540.009,1045.509,545.512,1051.324,550.868z
		 M226.337,550.702c5.365-4.484,9.635-9.05,6.917-16.703c-0.686-1.932-0.352-4.356,0.019-6.469c1.7-9.669,3.169-19.404,5.493-28.937
		c3.496-14.337,7.638-28.526,11.594-43.103c-16.482,20.483-25.754,43.639-29.202,68.956
		C219.943,533.362,220.237,542.579,226.337,550.702z M763.272,1050.829c0.521,0.707,1.042,1.414,1.564,2.121
		c4.631-2.324,10.222-3.725,13.7-7.158c8.082-7.977,17.62-15.116,20.681-26.922c0.565-2.181,2.411-4.06,3.732-6.038
		c6.119-9.163,14.733-12.311,25.641-10.236c2.702,0.514,5.52,0.451,8.446,0.666c-1.808-8.597-9.133-13.349-17.01-11.392
		c-13.563,3.371-23.706,10.904-28.588,23.922c-3.069,8.182-8.365,12.676-17.987,12.443c4.459,5.114,1.569,8.809-1.481,12.44
		C769.105,1044.087,766.174,1047.447,763.272,1050.829z M503.825,1028.052c-10.802-2.528-11.432-2.816-16.963-13.029
		c-6.12-11.302-14.616-19.532-27.678-22.968c-5.999-1.578-10.813-0.441-14.79,3.913c-1.149,1.259-1.464,3.24-2.162,4.89
		c1.853,0.443,3.824,1.527,5.54,1.229c13.222-2.299,22.388,1.679,28.979,13.159c1.959,3.413,3.253,7.186,5.172,10.624
		c1.618,2.901,3.322,5.915,5.655,8.246c4.784,4.78,9.954,9.201,15.082,13.644c3.725,3.228,8.011,4.875,13.48,3.691
		C511.828,1043.518,499.269,1040.282,503.825,1028.052z M681.179,1067.858c-4.584-4.465-8.953-8.479-13.03-12.758
		c-4.129-4.333-7.962-8.933-11.937-13.406c-13.176-14.829-30.767-7.199-40.875,10.19c5.994,2.578,10.48,0.117,14.775-3.601
		c6.896-5.971,10.961-6.218,18.216-0.786c2.36,1.767,4.172,4.248,6.154,6.472c4.493,5.041,8.417,10.703,13.534,15.037
		C673.762,1073.873,676.143,1073.105,681.179,1067.858z M226.812,612.982c2.483-2.735,4.317-3.992,5.061-5.7
		c4.321-9.931,4.021-20.376-0.423-29.755c-6.023-12.717-13.773-24.658-20.411-36.283c-3.683,11.258-5.453,23.092,4.338,34.9
		c5.509,6.644,8.874,15.194,12.106,23.301C228.802,602.751,227.212,607.157,226.812,612.982z M1048.036,612.181
		c0.983-0.106,1.967-0.213,2.951-0.318c0.098-2.011,0.858-4.272,0.176-5.989c-2.365-5.954-0.738-11.393,2.13-16.405
		c3.626-6.337,7.899-12.33,12.026-18.385c6.951-10.197,5.227-20.629,2.021-30.334c-4.983,8.989-8.874,19.241-15.578,27.265
		c-7.957,9.524-8.756,19.522-7.28,30.458C1045.108,603.113,1046.819,607.615,1048.036,612.181z M1045.268,708.471
		c-0.813,3.909-2.161,7.378-1.975,10.767c0.093,1.685,2.85,4.419,4.656,4.633c11.14,1.314,11.621,1.593,11.931,12.259
		c0.057,1.974,0.059,3.977,0.417,5.908c1.039,5.592-0.238,10.117-5.597,13.118c-1.209,0.677-2.745,1.575-3.127,2.694
		c-0.535,1.574-0.778,3.836,0.021,5.108c1.266,2.013,3.5,3.449,5.323,5.129c1.125-1.229,2.879-2.293,3.271-3.713
		c2.602-9.44,5.237-18.892,7.243-28.463c3.104-14.806-1.223-21.489-16.094-25.981
		C1049.609,709.406,1047.816,709.076,1045.268,708.471z M513.354,1030.451c12.007,26.594,35.25,32.567,58.161,16.256
		c-4.749-5.935-8.417-7.441-14.275-4.226c-9.328,5.118-17.174,4.603-24.108-3.746c-1.247-1.502-2.907-3.011-4.706-3.678
		C523.971,1033.403,519.325,1032.233,513.354,1030.451z M233.574,708.627c-4.304,1.34-8.259,2.196-11.876,3.784
		c-5.455,2.394-11.258,5.836-11.449,11.948c-0.433,13.832,1.948,27.4,8.829,39.813c0.719,1.297,3.728,2.912,3.88,2.752
		c1.944-2.035,3.991-4.197,5.042-6.711c0.399-0.953-1.479-3.973-2.678-4.193c-5.029-0.92-6.792-4.107-6.887-8.376
		c-0.125-5.674-0.218-11.417,0.527-17.022c0.618-4.647,3.871-6.829,9.104-6.634c6.433,0.24,8.414-2.317,7.284-8.322
		C234.953,713.56,234.308,711.499,233.574,708.627z M709.33,1041.709c-0.299,1.243-0.598,2.486-0.896,3.729
		c4.977,2.98,9.595,7.064,14.999,8.733c15.724,4.854,31.295-2.079,39.253-16.669c0.738-1.354,0.884-3.559,0.241-4.876
		c-0.375-0.767-3.249-1.241-4.339-0.665c-5.02,2.655-10.234,5.228-14.586,8.757c-7.597,6.162-10.637,6.969-19.687,3.037
		c-2.016-0.876-3.992-2.221-6.09-2.447C715.309,1040.995,712.299,1041.535,709.33,1041.709z M686.924,1058.831
		c0.45-0.962,0.936-1.976,1.4-2.998c6.597-14.532,20.406-22.762,36.549-21.86c3.027,0.169,6.598,1.047,8.966-0.165
		c2.803-1.435,4.574-4.781,6.792-7.299c-2.314-1.037-4.621-2.956-6.943-2.975c-21.253-0.167-38.033,8.674-51.151,24.7
		C677.493,1054.397,678.265,1056.639,686.924,1058.831z M1033.956,823.448c-7.279,1.144-11.317,3.738-11.749,9.506
		c-0.461,6.151-3.745,9.31-9.684,10.168c-3.581,0.518-7.373,0.2-10.774,1.206c-3.801,1.125-7.978,2.688-10.514,5.381
		c-0.947,1.006,2.277,5.736,3.363,8.229c7.166-2.081,13.062-4.03,19.086-5.478c6.372-1.532,10.98-5.024,13.469-10.801
		C1029.536,836.128,1031.393,830.385,1033.956,823.448z M282.968,857.892c6.759-7.986,5.031-12.714-5.306-14.289
		c-2.575-0.392-5.239-0.235-7.862-0.318c-9.681-0.304-11.876-1.775-13.3-10.891c-0.978-6.262-5.254-7.333-10.91-8.807
		c0.725,2.85,1.302,4.693,1.656,6.574c2.75,14.626,12.067,22.349,26.825,24.669C276.977,855.286,279.718,856.743,282.968,857.892z
		 M1012.391,863.245c-7.781,0.751-12.669,4.16-12.054,8.567c1.119,8.005-2.243,13.279-9.527,16.507
		c-6.275,2.781-6.819,7.861-6.07,15.492C996.542,890.803,1005.281,877.812,1012.391,863.245z M269.119,862.998
		c2.402,10.606,17.422,33.836,24.84,38.799c2.36-5.695,1.746-9.955-4.594-13.156c-4.98-2.515-10.343-6.312-9.72-12.461
		C280.448,868.245,276.017,865.396,269.119,862.998z M982.197,858.315c-1.816,2.306-3.617,4.592-5.087,6.458
		c1.333,3.226,2.765,5.833,3.458,8.616c0.682,2.74,0.614,5.657,0.898,8.757C994.565,872.674,994.664,868.832,982.197,858.315z
		 M297.239,880.043c0.631-2.829,0.976-5.353,1.784-7.728c0.864-2.539,2.165-4.938,3.438-7.756c-2.381-2.061-4.72-4.086-7.075-6.124
		C285.315,870.288,285.781,875.011,297.239,880.043z M250.017,778.925c-7.441,13.938-4.89,17.906,10.989,19.226
		C257.361,791.774,254.057,785.993,250.017,778.925z M672.894,1044.742c3.17-3.693,6.495-7.565,9.891-11.519
		c-7.663-3.304-14.946-2.072-19.603,3.641C666.175,1039.292,669.244,1041.783,672.894,1044.742z M394.365,977.874
		c-2.004,4.304-5.22,7.916-4.634,10.796c0.705,3.471,4.637,6.319,7.55,9.902C402.303,990.873,401.664,986.292,394.365,977.874z
		 M1030.027,780.795c-7.943,3.547-9.726,10.174-11.137,17.318C1031.4,797.006,1034.525,792.071,1030.027,780.795z M881.989,998.647
		c3.123-4.149,7.127-7.292,7.678-10.93c0.396-2.617-3.816-5.895-6.246-9.256C877.26,987.205,876.792,991.121,881.989,998.647z
		 M597.082,1031.629c-0.384,0.511-0.767,1.022-1.151,1.534c3.312,3.608,6.624,7.215,10.027,10.921
		c3.673-3.101,6.664-5.626,9.809-8.283C610.269,1029.676,603.375,1032.059,597.082,1031.629z M714.674,1065.385
		c-7.265-9.656-14.624-9.945-18.519-2.616c-1.336,2.514-1.092,4.577,2.144,4.432
		C703.343,1066.976,708.357,1066.123,714.674,1065.385z M429.831,977.219c-0.937,0.656-1.875,1.311-2.812,1.966
		c1.141,4.032,2.282,8.064,3.423,12.096c4.011-1.887,8.023-3.775,12.034-5.662c-0.146-0.808-0.291-1.615-0.436-2.423
		C437.971,981.204,433.901,979.211,429.831,977.219z M837.045,984.255c4.602,2.885,6.682,9.694,12.236,6.259
		c1.942-1.202,2.328-9.457,0.48-10.887C845.077,975.998,841.486,980.992,837.045,984.255z M584.964,1068.28
		c-1.497-6.271-3.462-9.84-8.292-10.414c-4.236-0.504-7.683,1.199-10.005,6.819C572.69,1065.869,578.148,1066.941,584.964,1068.28z
		 M955.145,889.678c-4.585,4.706-8.868,9.1-14.055,14.423C953.664,904.447,959.364,898.346,955.145,889.678z M942.193,931.787
		c12.201,7.187,12.879,7.811,21.266-4.965C956.258,928.503,949.759,930.02,942.193,931.787z M341.975,954.32
		c2.038-5.047,9-8.161,3.415-13.093c-1.202-1.062-6.917,2.724-11.182,4.545C337.272,949.143,339.229,951.297,341.975,954.32z
		 M944.487,945.599c-2.344-2.07-3.956-3.982-6.014-5.149c-1.503-0.852-3.592-0.723-5.42-1.03c-0.302,1.838-1.293,3.905-0.749,5.464
		c0.877,2.511,2.765,4.685,4.386,7.255C939.271,949.973,941.5,948.104,944.487,945.599z M325.254,891.003
		c-0.86,0.252-1.72,0.504-2.58,0.757c0.165,2.483-0.538,5.51,0.671,7.339c2.606,3.947,6.848,5.753,13.707,5.098
		C332.571,899.187,328.913,895.095,325.254,891.003z M892.175,974.193c-0.222,0.874-0.443,1.747-0.665,2.621
		c3.537,1.541,7.024,4.058,10.629,4.229c1.908,0.091,4.021-3.897,6.8-6.85C901.939,974.193,897.057,974.193,892.175,974.193z
		 M317.665,927.516c3.494,10.534,9.345,11.782,18.405,4.35C329.762,930.375,324.094,929.035,317.665,927.516z M386.587,974.792
		c-3.838-0.446-7.667-1.049-11.519-1.24c-1.106-0.055-3.099,0.947-3.225,1.698c-0.209,1.24,0.41,2.979,1.309,3.964
		C376.843,983.257,379.004,982.748,386.587,974.792z M496.75,1008.5c3.039,11.756,11.708,9.93,19.87,9.201
		C510.27,1014.762,503.92,1011.821,496.75,1008.5z M801.486,1036.663c0.303,0.323,0.605,0.647,0.908,0.97
		c4.542-2.716,9.085-5.431,14.264-8.527c-3.303-1.767-5.87-3.141-8.799-4.708C805.618,1028.713,803.552,1032.688,801.486,1036.663z
		 M779.612,1008.944c-5.659,2.719-11.317,5.439-16.976,8.158C774.083,1019.298,777.551,1017.704,779.612,1008.944z
		 M471.192,1023.245c-3.021,2.462-5.256,4.284-8.093,6.596c4.337,2.512,8.096,4.69,11.855,6.869c0.32-0.319,0.64-0.638,0.959-0.958
		C474.451,1031.878,472.989,1028.004,471.192,1023.245z M891.067,946.689c0.37,0.489,0.742,0.978,1.112,1.467
		c8.192-1.436,10.271-2.932,12.315-9.432C899.677,941.582,895.372,944.135,891.067,946.689z M375.108,939.159
		c0.818,6.638,3.712,8.613,11.151,7.576C382.447,944.144,378.86,941.708,375.108,939.159z M658.036,1072.583
		c-1.312-1.859-2.129-3.015-3.337-4.728c-1.209,1.702-2.088,2.94-3.358,4.728C653.742,1072.583,655.262,1072.583,658.036,1072.583z"
		/>
	<path fill="#003366" d="M273.131,585.815c4.326-2.113,7.874-3.846,11.711-5.72c1.377,2.491,2.592,4.688,3.7,6.693
		c-9.326,5.822-18.466,11.527-28.047,17.509c-0.559-6.971-1.633-13.741-1.562-20.5c0.86-82.034,23.693-156.814,76.91-221.719
		c55.499-67.689,128.53-107.445,213.895-126.965c20.542-4.697,41.983-5.745,63.05-8.137c5.818-0.661,11.467,0.402,13.529,7.193
		c0.222,0.731,0.745,1.419,1.264,2.015c10.619,12.2,8.812,24.59,0.369,36.884c-6.802,9.905-9.44,20.332-4.873,33.149
		c1.665-3.89,2.817-7.017,4.315-9.978c2.32-4.588,4.729-9.147,7.382-13.557c1.928-3.204,4.687-4.008,7.144-0.553
		c4.792,6.74,9.343,13.644,14.255,20.863c2.31-5.201,2.132-10.992,0.321-16.33c-1.878-5.535-4.993-10.708-7.871-15.879
		c-7.821-14.055-6.049-29.764,5.249-41.299c1.345-1.374,4.335-1.653,6.577-1.698c38.525-0.775,75.451,7.648,111.576,19.533
		c41.882,13.779,80.835,33.375,115.28,60.522c63.164,49.78,105.377,112.65,122.582,190.544c7.656,34.66,11.919,69.652,8.48,105.574
		c-9.824-5.68-19.392-11.212-29.36-16.976c1.565-2.505,3.195-5.115,4.857-7.777c0.985,0.423,1.503,0.668,2.038,0.872
		c2.694,1.033,5.392,2.056,8.089,3.082c0.49-4.346,2.372-9.18,1.003-12.871c-0.986-2.656-6.119-4.539-9.743-5.396
		c-3.934-0.929-8.102-0.125-10.139,4.449c-8.041,18.059-25.145,25.109-41.899,32.566c-0.685,0.305-1.341,0.67-2.28,1.141
		c15.373,4.566,31.241,1.42,42.29-9.109c8.383,5.758,17.339,11.33,25.616,17.734c12.158,9.407,10.79,22.945,8.92,35.56
		c-1.386,9.353-2.722,18.32-2.182,27.946c0.724,12.913-0.326,26.109-2.285,38.941c-4.769,31.241-13.539,61.453-28.361,89.723
		c-18.746,35.752-44.434,66.456-74.115,93.97c-44.459,41.214-95.691,71.755-154.172,90.396
		c-45.38,14.465-92.129,20.127-139.571,17.051c-90.389-5.86-169.868-37.885-237.437-97.208
		c-34.003-29.854-63.866-62.909-84.841-102.855c-20.668-39.363-30.303-81.534-32.305-125.489c-0.195-4.288,1.292-8.664,0.989-12.931
		c-0.514-7.225-1.836-14.395-2.813-21.589c-0.186-1.371-0.318-2.75-0.525-4.117c-2.381-15.699,4.161-27.225,17.509-35.585
		c1.703-1.067,3.438-2.105,5.038-3.309c7.556-5.685,14.262-8.226,23.72-1.536c9.894,6.998,22.279,5.645,32.384,3.858
		c-10.027-5.491-21.517-10.701-31.663-17.748c-5.981-4.154-10.316-10.908-14.49-17.072c-3.412-5.039-7.841-5.42-12.653-4.229
		c-4.876,1.206-9.241,3.87-8.934,9.706C271.231,578.573,272.341,581.944,273.131,585.815z M767.17,572.165
		c-0.022-0.173-0.044-0.346-0.066-0.519c-0.122,0.155-0.245,0.311-0.367,0.467c0.175-0.015,0.351-0.03,0.526-0.045
		c0.268,3.101,0.104,6.309,0.877,9.286c4.171,16.08,14.045,28.136,28.188,37.086c13.477,8.527,28.389,13.579,42.304,16.557
		c-12.434,5.215-25.972,10.714-39.357,16.547c-22.45,9.785-34.335,27.305-38.181,50.484c-1.058,6.373-4.296,11.206-9.539,15.165
		c-12.823,9.684-25.579,19.462-38.127,29.481c-28.681,22.9-51.593,50.123-65.335,84.056c-3.057,7.55-5.913,15.176-9.147,23.5
		c-0.572-1.413-0.82-1.911-0.979-2.434c-11.202-36.857-29.878-69.521-59.292-95.421c-16.067-14.148-33.661-26.664-50.731-39.713
		c-4.566-3.49-7.401-7.547-8.332-13.142c-4.197-25.217-18.042-43.565-42.022-54.055c-12.374-5.412-25.208-9.826-36.827-14.302
		c47.13-13.146,74.99-40.632,69.667-69.737c-6.12,2.518-12.275,4.936-18.301,7.626c-1.205,0.538-2.756,2.124-2.738,3.204
		c0.196,11.442-7.494,18.039-15.792,23.831c-19.059,13.305-41.321,17.989-64.005,19.244c-23.047,1.274-46.235,0.629-69.345,0.132
		c-13.464-0.289-26.421-3.857-38.034-10.66c-4.27-2.501-7.325-2.348-10.844,0.528c-1.819,1.487-3.788,2.8-6.231,4.589
		c13.84,11.793,30.085,17.424,48.685,21.732c-4.351,0.824-6.921,1.322-9.495,1.797c-21.212,3.916-38.781,13.559-50.717,31.472
		c-2.182,3.276-4.047,7.861-3.487,11.463c0.624,4.015,3.344,9.057,6.732,10.903c2.671,1.455,8.201-0.452,11.614-2.328
		c3.852-2.115,6.757-5.866,10.882-9.647c-7.24,0.721-13.227,2.577-18.58-1.616c3.811-8.835,11.008-13.57,18.847-17.476
		c19.576-9.755,40.883-13.161,62.39-15.635c24.617-2.832,48.87-0.62,73.021,4.621c21.414,4.647,41.044,12.054,55.37,29.197
		c5.172,6.189,9.143,12.949,9.864,21.146c0.416,4.727-1.393,7.527-6.522,8.077c-3.609,0.387-7.19,1.08-10.758,1.764
		c-44.014,8.44-74.211,34.011-94.025,72.264c-5.474,10.568-10.132,21.494-10.25,33.643c-0.018,1.857-0.072,4.56,1.061,5.436
		c5.553,4.296,11.503,8.106,16.772,11.718c1.905-10.327,2.464-20.603,5.767-29.961c12.443-35.258,38.431-58.092,74.029-69.568
		c21.927-7.069,43.198-3.539,62.385,11.046c27.044,20.557,47.787,45.747,64.096,74.951c16.976,30.399,23.743,63.006,24.077,97.15
		c0.124,12.637-0.398,25.307-1.26,37.921c-1.133,16.563-7.929,30.273-24.248,39.305c10.198,1.234,19.325,0.505,25.264-6.274
		c5.497-6.276,8.789-14.384,12.774-21.209c11.546,24.928,19.321,30.885,36.558,26.878c-1.491-1.088-2.639-2.044-3.899-2.828
		c-11.282-7.016-16.559-17.656-18.177-30.026c-2.594-19.838-2.782-39.718-1.622-59.752c1.634-28.227,8.739-54.621,22.417-79.556
		c20.81-37.936,50.27-67.57,88.699-88.612c4.222-2.311,9.817-2.234,14.766-3.307c1.122-0.243,2.935-0.395,3.187-1.046
		c1.921-4.957,5.565-9.13,3.598-15.533c-1.71-5.564-2.148-12.271-0.674-17.853c4.986-18.879,19.037-30.44,36.702-37.524
		c21.063-8.445,43.272-13.034,66.102-13.129c14.164-0.059,28.404,0.827,42.483,2.385c18.135,2.007,35.936,6.028,51.684,15.545
		c5.187,3.135,9.665,7.687,13.694,12.24c3.165,3.577,1.557,6.275-3.406,6.408c-3.503,0.093-7.026-0.54-12.459-1.018
		c4.67,4.428,7.721,8.154,11.566,10.773c5.684,3.872,11.919,3.187,14.512-1.398c3.089-5.461,5.129-11.711,0.972-17.302
		c-4.822-6.486-10.027-12.925-16.108-18.256c-12.306-10.791-27.963-14.344-43.938-17.256c17.173-4.102,33.672-9.311,47.224-21.751
		c-4.269-3.104-7.943-5.776-10.213-7.427c-8.97,3.543-16.655,8.12-24.903,9.494c-14.106,2.349-28.543,3.137-42.88,3.777
		c-25.357,1.132-50.709,0.921-75.599-4.921c-17.585-4.128-34.474-10.358-45.75-24.8C786.783,580.819,776.527,577.468,767.17,572.165
		z M791.305,479.477c3.826,0,6.857,0.012,9.887-0.002c14.032-0.065,13.984-0.082,17.877-12.991
		c12.746-42.271,19.05-84.96,10.401-128.937c-5.592-28.432-18.709-52.007-44.271-67.717c-18.382-11.298-38.305-17.39-60.049-10.957
		c-21.827,6.457-35.5,21.649-44.581,41.506c-10.198,22.301-12.854,45.996-12.984,69.869c-0.1,18.31,1.29,36.729,3.522,54.925
		c2.943,23.999,9.736,47.148,23.457,67.631c22.56,33.679,53.734,57.794,90.995,74.368c31.533,14.026,64.585,21.572,99.561,17.95
		c8.567-0.887,16.435-3.896,23.421-9.674c-7.061-1.586-13.368-2.847-19.585-4.44c-7.194-1.844-14.227-5.3-21.475-5.732
		c-18.522-1.102-36.424-4.885-54.025-10.041c-11.726-3.435-23.414-7.451-33.009-15.8c1.954-3.559,3.758-6.855,5.573-10.147
		c5.403-9.801,13.546-15.46,25.199-15.87c4.669-0.165,9.338-0.364,14-0.655c34.54-2.154,63.319-15.571,84.695-42.37
		c16.577-20.782,22.814-44.35,15.466-70.095c-5.928-20.769-19.09-37.327-35.672-51.193c-15.128-12.65-32.182-22.125-52.011-27.424
		c1.133,8.824,2.207,17.197,3.32,25.871c19.341,6.807,36.679,17.272,49.091,33.857c19.661,26.272,21.392,48.826,4.178,73.031
		c-9.084,12.774-21.207,22.103-35.649,28.695c-19.271,8.797-39.714,10.515-60.523,9.319c-8.115-0.466-14.303,2.035-19.076,8.122
		c-6.474,8.257-12.78,16.638-19.196,25.014c-14.193-7.429-32.838-24.666-43.988-40.516c-18.814-26.747-24.047-57.317-25.208-88.638
		c-0.641-17.3,0.648-34.763,2.398-52.026c1.573-15.509,6.059-30.484,15.285-43.65c10.573-15.087,27.862-22.555,44.644-18.601
		c26.162,6.163,41.77,23.694,49.27,47.648c10.487,33.492,10.634,67.621,2.036,101.651
		C800.294,447.238,795.803,462.898,791.305,479.477z M485.554,743.106c5.002,8.056,10.585,15.372,14.382,23.48
		c10.522,22.469,11.321,46.239,7.046,70.115c-2.755,15.385-8.331,29.997-18.441,42.496c-1.337,1.653-3.828,3.607-5.644,3.482
		c-5.402-0.371-10.938-1.111-16.06-2.765c-39.704-12.824-76.065-31.502-105.181-61.278c-20.116-20.572-31.213-45.227-29.858-74.393
		c1.551-33.356,27.164-56.33,60.706-58.201c21.939-1.224,41.488,4.809,59.447,16.678c1.252,0.828,3,1.861,4.262,1.604
		c7.216-1.464,14.355-3.29,22.635-5.258c-5.053-4.673-8.97-9.377-13.886-12.664c-33.611-22.478-69.73-27.036-107.681-12.255
		c-25.317,9.86-40.482,28.768-46.144,54.61c-6.625,30.234,0.653,58.008,17.996,83.218c24.388,35.451,59.524,58.238,98.522,75.615
		c32.087,14.298,65.909,23.647,101.066,27.199c14.401,1.455,29.224,1.742,43.573,0.151c16.41-1.819,31.253-16.632,33.51-30.344
		c-31.007,15.359-63.154,11.185-96.09,6.403c0.702-1.446,1.019-2.107,1.342-2.764c15.073-30.617,23.124-62.51,18.349-96.687
		c-1.972-14.119-5.821-27.658-13.045-40.216c-3.538-6.152-8.383-9.353-15.706-8.894
		C495.592,742.755,490.518,742.893,485.554,743.106z M639.395,290.5c-0.671-0.048-1.342-0.097-2.013-0.145
		c-2.239,12.036-5.975,24.019-6.43,36.12c-1.249,33.201-1.051,66.451-1.587,99.678c-0.137,8.493-0.428,17.026-1.412,25.456
		c-4.283,36.711-21.532,65.304-53.578,86.346c-41.353,27.155-64.105,76.02-52.275,124.588
		c21.634,88.813,130.944,122.202,198.662,59.994c32.278-29.651,44.508-66.632,36.197-109.204
		c-6.102-31.256-23.388-55.958-50.34-73.951c-19.586-13.075-36.034-28.754-46-50.077c-8.807-18.844-11.041-39.08-11.564-59.385
		c-0.9-34.999-0.883-70.019-1.401-105.029C647.477,312.853,644.649,301.357,639.395,290.5z M463.19,297.488
		c5.445-0.37,9.879-0.897,14.318-0.929c11.691-0.085,23.399,0.311,32.954-8.174c1.703-1.512,4.3-2.13,6.555-2.983
		c18.522-7.002,35.318-3.742,48.701,10.453c13.744,14.579,18.532,33.263,20.689,52.012c3.211,27.914,2.851,55.994-2.073,83.867
		c-5.396,30.546-19.683,56.204-44.501,75.721c-38.585,30.341-83.621,43.565-132.481,42.894
		c-26.024-0.357-43.619-12.236-50.914-37.768c-2.356-8.244-2.695-17.05-3.771-25.621c-0.45-3.587-0.415-7.232-0.687-12.533
		c-6.233,4.374-11.258,7.612-15.89,11.316c-1.521,1.216-2.694,3.577-2.889,5.522c-3.419,34.029,18.798,66.906,52.298,77.315
		c17.394,5.404,35.219,4.354,52.999,2.452c34.905-3.734,67.085-15.138,96.819-33.188c32.345-19.636,55.355-46.384,65.706-82.612
		c7.779-27.223,10.019-55.044,9.205-83.185c-0.645-22.311-1.966-44.491-10.065-65.739c-5.625-14.757-14.114-27.615-26.816-37.343
		c-14.892-11.406-31.96-14.608-50.388-10.399C498.269,264.202,479.63,278.582,463.19,297.488z M332.064,433.269
		c8.257-1.718,15.77-3.075,23.147-4.937c2.373-0.599,5.363-2.016,6.425-3.926c11.799-21.226,27.113-39.742,44.856-56.457
		c24.073-22.679,51.268-38.164,86.261-36.98c23.82,0.805,47.467,17.154,54.501,38.681c3.839,11.748,3.875,23.749,1.604,35.707
		c-2.754,14.504-7.948,28.053-18.297,39.263c-2.504,2.712-4.929,4.088-7.893,0.418c-10.953-13.558-19.007-28.411-20.721-45.834
		c-0.868-8.827,3.879-13.719,11.952-13.491c6.279,0.177,8.216-2.089,6.686-8.116c-1.402-5.522-4.576-9.334-10.514-11.092
		c-12.93-3.83-26.497,4.055-29.11,18.492c-1.409,7.786-1.713,16.312-0.012,23.977c4.898,22.055,15.015,41.617,33.922,55.714
		c8.144,6.071,17.083,6.165,25.269,0.171c4.622-3.384,9.246-7.413,12.255-12.128c17.208-26.967,24.906-56.328,16.697-87.479
		c-9.142-34.691-40.569-56.023-79.854-57.935c-21.701-1.056-41.77,4.392-60.117,15.235
		C384.444,348.954,354.374,387.655,332.064,433.269z M903.097,856.068c1.26-0.49,2.201-0.792,3.086-1.207
		c45.36-21.241,74.08-81.984,60.551-129.134c-15.687-54.673-78.89-75.341-123.324-48.279c-24.464,14.9-41.424,35.878-53.787,60.493
		c-14.482,28.836-20.515,59.714-18.556,91.76c1.115,18.224,5.588,35.881,16.332,51.249c10.215,14.612,22.023,18.905,37.506,6.512
		c-5.093-4.337-10.791-8.242-15.277-13.19c-12.43-13.715-15.464-30.783-16.816-48.286c-2.344-30.365,5.221-58.635,19.533-85.341
		c11.025-20.573,26.069-37.649,47.848-48.033c24.888-11.868,53.001-5.985,70.919,14.527c13.865,15.872,18.24,34.465,15.29,54.702
		c-3.786,25.962-15.065,48.001-37.119,64.047c-1.288,0.937-2.726,2.475-2.933,3.895
		C905.103,838.311,904.193,846.886,903.097,856.068z M822.409,744.544c9.06,7.804,18.004,14.63,25.873,22.478
		c14.428,14.389,23.6,31.77,24.821,51.969c2.043,33.795-11.519,60.888-40.602,79.581c-23.276,14.961-47.925,15.207-72.257,2.136
		c-4.637-2.492-8.749-7.157-11.315-11.764c-3.87-6.949-0.251-12.554,7.275-15.526c2.582-1.02,5.415-4.377,5.865-7.031
		c1.503-8.86-9.927-16.134-20.561-13.552c-11.271,2.736-18.862,14.79-17.434,27.773c1.97,17.912,11.91,30.553,27.548,39.429
		c36.692,20.826,87.09,11.581,115.594-21.186c23.537-27.057,32.884-57.915,25.465-92.879c-7.362-34.693-28.198-59.719-60.098-77.18
		C828.883,734.52,825.367,739.964,822.409,744.544z M753.631,447.281c-8.352-2.86-14.504-7.934-17.049-15.842
		c-3.605-11.203-7.524-22.529-9.068-34.086c-1.931-14.456-1.352-29.187,4.41-43.129c4.893-11.839,13.095-16.969,26.115-17.382
		c9.39-0.298,17.969,1.915,26.268,5.896c5.494,2.635,9.103,0.652,8.324-5.21c-0.541-4.073-2.397-8.389-4.886-11.736
		c-10.484-14.093-25.87-14.619-41.184-11.758c-20.023,3.74-30.624,17.957-36.65,35.771c-7.662,22.65-5.539,45.469-0.461,68.259
		c3.958,17.762,11.561,33.537,26.156,45.482c9.82,8.037,21.961,7.746,31.209-0.953c3.485-3.278,6.952-6.749,9.602-10.662
		c12.177-17.988,21.98-36.95,19.918-59.362c-0.98-10.651-5.684-19.817-16.461-24.428c-10.035-4.293-18.776-0.347-26.305,5.757
		c-2.306,1.87-3.712,6.534-3.191,9.534c0.671,3.86,4.943,3.892,8.568,3.133c10.488-2.195,16.983,3.321,15.925,13.739
		C773.057,418.17,764.168,433.007,753.631,447.281z M828.699,526.513c-0.459,0.454-0.917,0.908-1.376,1.362
		c1.067,0.512,2.257,0.867,3.183,1.558c29.97,22.37,63.241,35.31,101.575,34.446c16.855-0.38,32.336-4.484,45.992-14.227
		c10.103-7.208,15.413-16.935,13.216-29.225c-6.032-33.739-27.751-56.858-54.882-76.324c-2.808,6.701-5.436,12.97-8.17,19.494
		c8.006,7.767,16.689,15.061,23.891,23.547c5.409,6.373,10.2,13.841,12.984,21.598c4.896,13.641-0.994,24.814-14.795,29.916
		c-5.751,2.126-12.104,3.271-18.266,3.684c-26.072,1.751-49.797-5.772-72.301-18.007c-2.567-1.396-6.134-1.952-9.078-1.605
		C843.299,523.594,836.018,525.202,828.699,526.513z M770.582,949.656c-4.677-0.521-8.529-0.689-12.271-1.407
		c-38.677-7.419-64.077-46.046-54.855-83.426c5.963-24.173,20.558-41.425,43.9-51.664c7.006-3.073,9.539-12.239,5.674-19.533
		c-3.027-5.713-8.481-6.814-16.185-2.688c-34.194,18.312-64.354,57.713-56.115,103.409c4.777,26.497,18.352,47.764,42.483,61.719
		C739.772,965.642,755.624,963.501,770.582,949.656z M385.171,438.081c-23.23-1.468-44.123,3.051-59.762,13.729
		c-23.195,15.836-37.03,37.712-41.973,64.721c-1.966,10.744-0.121,20.988,9.427,28.408c18.776,14.59,41.246,19.473,64.779,23.764
		c-6.16-6.608-12.105-12.241-17.07-18.6c-2.868-3.672-5.416-6.363-10.292-7.736c-18.431-5.187-27.037-18.948-21.235-35.585
		c10.104-28.977,31.643-46.176,63.453-47.303c8.73-0.309,17.54,1.514,25.751,2.305C394.224,454.488,389.869,446.596,385.171,438.081
		z M527.515,942.701c-0.112,0.036-0.455,0.27-0.763,0.232c-22.224-2.721-42.87-10.079-61.439-22.022
		c-15.744-10.126-31.956-19.075-49.403-26.051c-6.514-2.605-12.578-6.273-18.851-9.451c-1.294-0.656-2.602-1.287-4.844-2.394
		c42.204,58.376,120.819,94.342,183.6,82.516c-5.631-5.867-11.674-11.417-16.78-17.69c-5.133-6.306-9.272-13.373-14.013-19.994
		c-0.69-0.963-2.242-1.694-3.491-1.865c-8.036-1.099-16.1-2.011-25.756-3.179C520.169,930.254,523.848,936.488,527.515,942.701z
		 M500.417,518.121c-5.181-17.528-13.529-31.219-31.667-38.275c-18.938-7.368-33.592-20.562-44.094-37.525
		c-8.691-14.039-12.565-28.532-0.364-43.276c1.982-2.395,1.229-7.086,1.299-10.724c0.017-0.874-1.836-2.631-2.642-2.533
		c-4.637,0.568-10.415,0.143-13.606,2.679c-12.786,10.161-17.813,23.372-13.252,39.467c8.758,30.906,28.419,53.212,57.32,67.641
		c13.29,6.635,24.438,14.519,29.13,29.296C488.766,522.521,494.495,520.357,500.417,518.121z M474.275,343.184
		c-6.788,2.286-11.6,4.292-16.613,5.517c-11.621,2.841-15.874,10.937-17.188,21.497c-3.337,26.806-1.301,53.225,7.528,78.804
		c4.009,11.613,15.885,15.467,26.128,21.07C464.935,427.985,453.145,386.465,474.275,343.184z M542.862,795.846
		c0,6.348,0.236,12.444-0.088,18.51c-0.194,3.623,0.962,5.58,4.314,7.372c8.421,4.501,16.067,10.046,20.377,18.843
		c2.154,4.396,2.264,8.873-0.809,12.884c-3.204,4.181-7.724,5.519-12.968,4.667c-2.189-0.356-4.378-0.786-6.584-0.95
		c-4.278-0.319-8.575,0.279-10.106,4.737c-1.739,5.064,1.842,8.149,5.82,10.526c9.755,5.828,26.344,4.611,36.269-2.544
		c9.881-7.123,14.279-19.536,10.297-31.724C581.957,815.427,563.415,804.193,542.862,795.846z M875.743,728.868
		c4.592,0,7.389-0.022,10.185,0.004c11.598,0.111,21.066,8.436,20.352,19.732c-0.442,6.983-2.859,14.294-6.22,20.52
		c-2.856,5.289-4.123,9.815-2.39,15.476c1.746,5.701,2.961,11.556,4.527,17.817c15.087-13.609,22.131-30.558,24.729-49.54
		c1.455-10.625,0.182-20.835-6.319-29.955c-10.043-14.09-28.809-15.675-40.549-3.14
		C878.141,721.831,877.511,725.023,875.743,728.868z M854.993,832.135c0.002-11.291-2.014-20.118-7.67-27.343
		c-5.771-7.372-12.003-14.733-23.06-14.117c-4.782,0.266-8.765,2.312-10.352,6.886c-1.572,4.529,0.903,7.987,4.445,10.752
		c1.42,1.108,2.985,2.038,4.421,3.127c8.469,6.425,12.872,14.911,11.256,25.263c-1.438,9.207-8.531,13.128-17.48,14.652
		c-3.664,0.624-4.704,3.395-3.519,6.794c1.397,4.008,4.279,5.815,8.656,6.138C836.77,865.399,857.361,851.23,854.993,832.135z
		 M494.99,793.559c-1.003-0.146-1.778-0.37-2.548-0.355c-22.592,0.448-44.877-1.383-66.576-8.058
		c-1.207-0.371-3.72,0.529-4.341,1.566c-3.001,5.015-5.563,10.279-8.611,16.084c27.501,9.919,54.952,13.29,83.902,11.523
		C496.169,806.952,495.588,800.347,494.99,793.559z M375.262,783.146c1.888-3.943,3.656-7.642,5.428-11.338
		c1.875-3.91,1.761-7.277-1.51-10.781c-2.221-2.38-3.722-5.614-4.853-8.706c-4.779-13.068,1.09-20.744,14.985-19.913
		c1.012,0.06,2.151,0.358,3.02,0.025c2.942-1.13,7.131-1.761,8.378-3.928c2.212-3.844,0.596-8.285-3.294-10.913
		c-15.852-10.706-38.084-4.508-42.309,13.698C350.134,752.722,358.317,769.363,375.262,783.146z M888.743,444.816
		c1.596-3.849,3.205-7.179,4.371-10.649c2.852-8.485,1.704-11.451-6.196-15.536c-5.495-2.841-10.985-5.905-16.841-7.816
		c-9.004-2.939-18.32-4.975-27.834-7.48c-1.393,8.844-2.516,15.968-3.716,23.579C856.299,429.964,873.598,433.605,888.743,444.816z
		 M567.532,247.814c12.287,8.017,22.976,15.073,33.76,21.989c4.549,2.917,9.258,2.495,13.63-0.458
		c4.385-2.963,7.683-7.075,6.928-12.36c-0.904-6.326-2.157-12.961-9.167-16.215c-0.263-0.122-0.735,0.183-1.238,0.325
		c-0.628,4.234-0.745,8.682-2.113,12.728c-0.693,2.048-3.645,3.372-5.576,5.024c-1.598-1.938-4.097-3.682-4.587-5.856
		c-0.776-3.447-0.207-7.18-0.207-11.07C589.047,243.778,579.001,245.662,567.532,247.814z M666.668,241.045
		c-7.1,1.995-11.995,11.348-10.096,18.957c2.54,10.175,13.798,14.853,22.674,8.935c9.883-6.589,19.337-13.786,29.932-21.405
		c-10.739-1.895-20.574-3.63-30.845-5.443c0,4.012,0.497,7.817-0.195,11.403c-0.385,1.993-2.752,3.624-4.227,5.417
		c-1.805-1.546-4.615-2.793-5.208-4.697C667.438,250.137,667.316,245.724,666.668,241.045z M431.755,845.869
		c-0.131,0.866-0.261,1.732-0.393,2.598c3.792,2.091,7.369,5.25,11.427,6.029c6.663,1.28,13.657,1.511,20.478,1.276
		c8.364-0.289,14.413-6.782,13.649-13.576c-0.772-6.88-7.407-11.537-16.146-8.894C450.732,836.338,441.396,841.584,431.755,845.869z
		 M639.217,797.917c7.439-10.665,15.306-21.943,22.837-32.742c-14.583,0-30.03,0-44.609,0
		C624.54,775.843,632.036,787.119,639.217,797.917z M410,524.278c0-8.222,0.428-16.094-0.138-23.897
		c-0.437-6.023-5.285-9.969-10.767-10.122c-5.123-0.144-11.129,4.441-12.457,9.508C383.518,511.67,394.29,523.749,410,524.278z
		 M909.548,525.58c8.949,1.119,15.669-0.86,20.287-7.232c3.86-5.325,4.99-11.526,1.054-17.114c-1.893-2.688-5.62-5.363-8.773-5.691
		c-4.016-0.417-7.705,2.353-8.557,6.886C912.147,509.939,910.939,517.484,909.548,525.58z M681.437,985.406
		c4.077-5.732,4.789-9.459,1.602-14.948c-5.464-9.41-11.428-18.544-17.137-27.721C661.927,961.184,665.904,973.806,681.437,985.406z
		 M596.836,984.233c14.241-7.441,22.044-28.121,15.562-39.799c-4.79,7.031-9.638,14.397-14.75,21.585
		C592.952,972.621,592.575,977.947,596.836,984.233z M773.877,621.316c0,9.553,0,19.086,0,27.938
		c8.195-4.537,16.281-9.013,23.408-12.958C789.862,631.546,782.065,626.556,773.877,621.316z M504.809,620.979
		c-8.27,5.154-16.014,9.98-23.527,14.663c7.803,4.425,15.521,8.803,23.527,13.343C504.809,639.513,504.809,630.367,504.809,620.979z
		 M274.422,650.817c6.678-4.691,12.439-8.738,18.131-12.737c-5.578-5.872-10.783-11.35-16.439-17.303
		C268.314,630.442,272.172,640.178,274.422,650.817z M1002.045,622.615c-5.942,4.948-11.589,9.649-17.111,14.248
		c6.188,4.789,12.592,9.745,19.76,15.292C1005.067,641.72,1010.332,631.86,1002.045,622.615z"/>
	<path fill="#003366" d="M745.868,636.534c-0.215-58.225-48.709-101.962-104.646-106.173
		c-50.148-3.775-109.277,43.66-108.668,105.943c0.5,51.132,42.268,105.566,108.276,104.8
		C698.657,740.433,745.464,694.745,745.868,636.534z M638.811,481.38c-4.564,9.459-9.133,18.931-14.413,29.876
		c9.777-6.574,18.845-8.902,28.137-1.623C647.944,500.182,643.353,490.731,638.811,481.38z"/>
	<path fill="#003366" d="M767.263,572.068c-0.175,0.015-0.351,0.03-0.526,0.045c0.122-0.155,0.245-0.311,0.367-0.467
		c0.022,0.173,0.044,0.346,0.066,0.52L767.263,572.068z"/>
	<path fill="#003366" d="M745.868,636.534c-0.404,58.211-47.21,103.899-105.037,104.57c-66.008,0.767-107.777-53.668-108.276-104.8
		c-0.609-62.284,58.52-109.718,108.668-105.943C697.158,534.571,745.653,578.309,745.868,636.534z"/>
	<path fill="#003366" d="M638.811,481.38c4.542,9.35,9.133,18.801,13.724,28.253c-9.292-7.278-18.36-4.951-28.137,1.623
		C629.678,500.311,634.248,490.839,638.811,481.38z"/>
	<g>
		<g>
			<path fill="#003366" d="M126.193,730.011l52.778-11.798l2.73,12.215l-52.778,11.797L126.193,730.011z M134.283,766.201
				l52.777-11.797l2.73,12.214l-52.778,11.797L134.283,766.201z M150.359,736.482l10.329-2.309l5.764,25.786l-10.329,2.309
				L150.359,736.482z"/>
			<path fill="#003366" d="M152.02,825.464c-2.727-7.175-2.861-13.541-0.401-19.106c2.458-5.561,7.395-9.751,14.81-12.57
				l28.31-10.759l4.446,11.699l-27.876,10.595c-4.815,1.83-7.906,4.132-9.274,6.913c-1.369,2.778-1.376,5.949-0.021,9.512
				c1.354,3.561,3.465,5.928,6.334,7.097c2.868,1.169,6.71,0.839,11.525-0.991l27.876-10.594l4.391,11.555l-28.309,10.759
				c-7.414,2.818-13.888,2.964-19.421,0.438C158.875,837.488,154.746,832.638,152.02,825.464z"/>
			<path fill="#003366" d="M171.965,871.114l46.992-26.767l5.123,8.997l-21.767,38.895l-2.715-4.766l44.366,0.779l5.086,8.928
				l-46.915,26.902l-5.812-10.204l31.312-17.924l1.07,1.879l-35.33-0.68l-2.792-4.9l17.243-31.073l1.3,2.283l-31.35,17.857
				L171.965,871.114z"/>
			<path fill="#003366" d="M212.55,939.474l57.364-14.664l7.672,9.692l-27.396,52.526l-8.151-10.298l25.162-45.141l3.069,3.877
				l-49.761,14.064L212.55,939.474z M229.116,941.732l9.512-3.292l17.262,21.808l-5.341,8.563L229.116,941.732z"/>
			<path fill="#003366" d="M262.661,1000.126l37.322-39.138l7.492,7.144l-3.78,50.199l-3.634-3.465l26.872-28.18l8.946,8.531
				l-37.322,39.138l-7.436-7.091l3.724-50.252l3.635,3.465l-26.872,28.179L262.661,1000.126z"/>
			<path fill="#003366" d="M342.797,1068.087l30.363-44.751l10.357,7.026l-30.363,44.753L342.797,1068.087z"/>
			<path fill="#003366" d="M373.259,1088.401l25.467-47.708l9.133,4.876l9.811,49.375l-4.43-2.365l18.337-34.349l10.905,5.821
				l-25.468,47.708l-9.065-4.84l-9.88-49.411l4.431,2.365l-18.337,34.349L373.259,1088.401z"/>
			<path fill="#003366" d="M450.359,1125.562l15.496-41.055l-16.191-6.111l3.601-9.541l44.091,16.643l-3.601,9.54l-16.191-6.111
				l-15.496,41.056L450.359,1125.562z"/>
			<path fill="#003366" d="M495.938,1141.339l12.963-52.505l39.678,9.796l-2.408,9.751l-27.602-6.816l-8.148,33.003l28.577,7.055
				l-2.407,9.751L495.938,1141.339z M512.521,1122.196l2.333-9.452l25.277,6.241l-2.333,9.452L512.521,1122.196z"/>
			<path fill="#003366" d="M584.164,1159.144c-4.249-0.476-8.076-1.592-11.481-3.346c-3.406-1.754-6.286-4.033-8.641-6.838
				c-2.356-2.802-4.072-5.975-5.152-9.518c-1.08-3.541-1.394-7.333-0.941-11.376c0.453-4.043,1.598-7.673,3.436-10.888
				c1.837-3.215,4.227-5.926,7.17-8.137c2.942-2.209,6.281-3.791,10.016-4.747c3.734-0.954,7.752-1.192,12.052-0.71
				c4.76,0.534,8.958,1.807,12.593,3.822c3.635,2.014,6.589,4.677,8.862,7.988l-8.811,6.477c-1.717-2.265-3.669-4.028-5.861-5.283
				c-2.191-1.256-4.644-2.036-7.356-2.34c-2.611-0.293-5.036-0.149-7.278,0.429s-4.23,1.547-5.962,2.908
				c-1.734,1.36-3.14,3.043-4.22,5.047c-1.08,2.005-1.762,4.286-2.049,6.846c-0.281,2.508-0.117,4.859,0.493,7.05
				c0.609,2.195,1.606,4.159,2.993,5.895c1.385,1.736,3.095,3.132,5.128,4.188c2.032,1.058,4.327,1.729,6.887,2.017
				c2.457,0.274,4.893,0.147,7.312-0.387c2.418-0.533,4.833-1.622,7.246-3.27l6.057,9.775c-3.164,1.874-6.744,3.183-10.741,3.926
				C591.919,1159.417,588.003,1159.574,584.164,1159.144z M606.657,1154.746l-11.182-2.886l2.263-20.192l11.363,1.273
				L606.657,1154.746z"/>
			<path fill="#003366" d="M629.796,1161.537l-1.177-54.068l23.094-0.502c7.517-0.163,13.401,1.447,17.647,4.832
				c4.246,3.385,6.437,8.142,6.57,14.27c0.087,4.016-0.79,7.501-2.631,10.45c-1.844,2.952-4.498,5.238-7.966,6.857
				c-3.467,1.622-7.622,2.485-12.462,2.59l-16.451,0.357l5.442-5.604l0.447,20.546L629.796,1161.537z M641.893,1142.109
				l-5.689-5.748l15.756-0.343c3.861-0.085,6.727-0.984,8.596-2.699c1.867-1.714,2.771-4.04,2.707-6.975
				c-0.065-2.986-1.068-5.283-3.01-6.889c-1.941-1.607-4.842-2.368-8.704-2.284l-15.756,0.342l5.432-6.069L641.893,1142.109z
				 M664.167,1160.789l-13.944-19.326l13.362-0.289l14.099,19.32L664.167,1160.789z"/>
			<path fill="#003366" d="M697.441,1158.115l-6.515-53.686l12.424-1.507l6.516,53.686L697.441,1158.115z"/>
			<path fill="#003366" d="M744.159,1150.856l-9.223-42.903l-16.918,3.638l-2.144-9.97l46.075-9.905l2.142,9.97l-16.918,3.637
				l9.223,42.903L744.159,1150.856z"/>
			<path fill="#003366" d="M802.717,1135.391l-7.137-20.913l5.152,6.243l-35.297-29.749l12.576-4.292l27.063,22.844l-7.239,2.471
				l7.521-34.65l11.626-3.967l-9.743,45.122l0.186-8.065l7.137,20.912L802.717,1135.391z"/>
			<path fill="#003366" d="M872.755,1107.54l-5.984-58.905l10.725-6.148l47.875,34.892l-11.395,6.531l-40.904-31.585l4.29-2.46
				l6.52,51.298L872.755,1107.54z M877.449,1091.493l-1.845-9.897l24.13-13.832l7.675,6.553L877.449,1091.493z"/>
			<path fill="#003366" d="M940.248,1066.968l-33.249-42.653l19.376-15.104c4.632-3.61,9.403-5.909,14.314-6.896
				c4.911-0.988,9.597-0.675,14.057,0.942c4.46,1.618,8.385,4.599,11.773,8.945c3.356,4.307,5.281,8.83,5.777,13.57
				c0.496,4.741-0.335,9.372-2.492,13.893s-5.55,8.587-10.181,12.198L940.248,1066.968z M943.802,1051.169l9.017-7.03
				c2.842-2.216,4.891-4.677,6.145-7.386c1.253-2.706,1.682-5.506,1.288-8.4c-0.393-2.892-1.635-5.68-3.725-8.361
				c-2.122-2.722-4.529-4.616-7.223-5.684c-2.694-1.068-5.506-1.324-8.437-0.77c-2.93,0.555-5.819,1.94-8.66,4.156l-9.02,7.03
				L943.802,1051.169z"/>
			<path fill="#003366" d="M1009.034,1008.29l-55.007-21.055l9.44-9.679l48.532,18.841l-5.556,5.698l-19.836-48.266l8.684-8.906
				l22.372,54.518L1009.034,1008.29z"/>
			<path fill="#003366" d="M1043.392,970.345l-42.219-33.795l7.82-9.771l42.22,33.795L1043.392,970.345z"/>
			<path fill="#003366" d="M1076.128,927.455c-2.381,3.611-5.147,6.754-8.298,9.427c-3.152,2.673-6.166,4.509-9.047,5.51
				l-5.529-8.737c2.653-1.026,5.29-2.572,7.916-4.636c2.625-2.062,4.832-4.449,6.617-7.157c1.361-2.065,2.256-3.864,2.684-5.403
				c0.428-1.537,0.474-2.848,0.141-3.933c-0.334-1.083-0.974-1.937-1.92-2.562c-1.203-0.793-2.473-0.95-3.806-0.473
				c-1.333,0.479-2.737,1.343-4.207,2.592c-1.473,1.25-3.029,2.676-4.672,4.277c-1.642,1.601-3.38,3.138-5.216,4.612
				c-1.835,1.473-3.737,2.673-5.703,3.595c-1.966,0.925-4.044,1.36-6.229,1.307c-2.187-0.054-4.482-0.874-6.891-2.463
				c-2.579-1.701-4.474-3.95-5.679-6.752c-1.208-2.801-1.516-6.028-0.929-9.682c0.589-3.651,2.287-7.608,5.095-11.864
				c1.872-2.838,4.047-5.413,6.529-7.726c2.482-2.31,5.084-4.081,7.805-5.311l5.806,8.457c-2.591,1.313-4.875,2.833-6.844,4.556
				c-1.969,1.725-3.622,3.597-4.953,5.617c-1.333,2.022-2.188,3.832-2.566,5.433c-0.376,1.602-0.374,2.932,0.009,3.985
				c0.384,1.057,1.072,1.91,2.06,2.562c1.161,0.766,2.408,0.909,3.742,0.431c1.332-0.477,2.726-1.349,4.175-2.613
				c1.451-1.264,3.009-2.69,4.672-4.277c1.664-1.587,3.392-3.131,5.184-4.634c1.793-1.502,3.672-2.714,5.638-3.639
				c1.967-0.923,4.044-1.359,6.229-1.305c2.187,0.053,4.462,0.859,6.826,2.419c2.538,1.673,4.391,3.914,5.562,6.722
				c1.172,2.808,1.473,6.046,0.906,9.713C1080.665,919.171,1078.964,923.155,1076.128,927.455z"/>
			<path fill="#003366" d="M1110.703,866.614c-1.858,3.85-4.203,7.107-7.033,9.773c-2.83,2.666-5.959,4.644-9.385,5.935
				c-3.424,1.293-6.987,1.861-10.687,1.705c-3.699-0.156-7.359-1.107-10.976-2.854c-3.618-1.746-6.639-4.019-9.063-6.818
				c-2.422-2.799-4.188-5.954-5.297-9.463c-1.108-3.507-1.506-7.189-1.192-11.04c0.315-3.85,1.391-7.678,3.227-11.483
				c1.858-3.849,4.191-7.085,7-9.703c2.807-2.619,5.926-4.574,9.351-5.867c3.425-1.291,6.983-1.875,10.67-1.755
				c3.688,0.121,7.365,1.067,11.028,2.835c3.618,1.746,6.645,4.037,9.08,6.871c2.436,2.834,4.202,5.989,5.298,9.463
				c1.097,3.474,1.494,7.126,1.189,10.953C1113.609,858.994,1112.539,862.811,1110.703,866.614z M1101.068,862.047
				c1.052-2.179,1.649-4.364,1.792-6.555c0.143-2.189-0.146-4.317-0.867-6.38c-0.719-2.064-1.845-3.936-3.378-5.62
				c-1.532-1.683-3.457-3.084-5.777-4.205c-2.319-1.118-4.614-1.754-6.886-1.907c-2.271-0.152-4.434,0.12-6.485,0.817
				c-2.052,0.696-3.896,1.794-5.534,3.29c-1.636,1.499-2.982,3.337-4.035,5.517c-1.053,2.18-1.649,4.365-1.792,6.556
				c-0.142,2.191,0.146,4.316,0.867,6.379c0.719,2.064,1.846,3.937,3.378,5.62c1.534,1.685,3.458,3.087,5.777,4.205
				c2.272,1.098,4.557,1.728,6.851,1.89c2.294,0.165,4.467-0.102,6.519-0.798c2.052-0.696,3.897-1.793,5.535-3.291
				C1098.671,866.068,1100.016,864.229,1101.068,862.047z"/>
			<path fill="#003366" d="M1130.312,819.052l-51.538-16.387l6.999-22.015c2.279-7.165,5.706-12.209,10.284-15.132
				c4.578-2.922,9.787-3.455,15.627-1.598c3.829,1.217,6.841,3.176,9.037,5.874c2.196,2.698,3.499,5.95,3.91,9.755
				c0.412,3.807-0.117,8.017-1.583,12.63l-4.987,15.682l-3.542-6.963l19.585,6.227L1130.312,819.052z M1115.844,801.319
				l-7.281,3.522l4.777-15.021c1.17-3.681,1.246-6.682,0.228-9.007c-1.017-2.322-2.925-3.929-5.723-4.818
				c-2.846-0.906-5.344-0.699-7.493,0.616c-2.148,1.317-3.807,3.816-4.978,7.497l-4.776,15.019l-3.983-7.103L1115.844,801.319z
				 M1140.729,786.289l-22.799,6.937l4.051-12.737l22.846-7.085L1140.729,786.289z"/>
			<path fill="#003366" d="M1151.722,740.591l-21.735-3.977l7.962-1.449l-43.193,16.287l2.392-13.072l33.149-12.469l-1.377,7.524
				l-26.571-23.477l2.212-12.083l34.627,30.527l-6.947-4.099l21.735,3.976L1151.722,740.591z"/>
		</g>
		<g>
			<path fill="#003366" d="M177.609,574.587l-53.19-10.372l2.401-12.309l53.188,10.372L177.609,574.587z M184.721,538.114
				l-53.19-10.372l2.4-12.309l53.189,10.372L184.721,538.114z M158.024,558.936l-10.41-2.03l5.067-25.986l10.41,2.029
				L158.024,558.936z"/>
			<path fill="#003366" d="M200.965,485.32c-2.553,7.255-6.569,12.214-12.05,14.881c-5.48,2.666-11.969,2.68-19.467,0.041
				l-28.624-10.078l4.164-11.83l28.187,9.924c4.868,1.714,8.724,1.95,11.569,0.708c2.845-1.241,4.901-3.663,6.17-7.266
				c1.268-3.603,1.183-6.778-0.257-9.53c-1.439-2.749-4.592-4.981-9.461-6.696l-28.187-9.924l4.113-11.684l28.625,10.078
				c7.497,2.64,12.546,6.715,15.147,12.227C203.497,471.685,203.519,478.067,200.965,485.32z"/>
			<path fill="#003366" d="M215.171,445.077l-47.655-25.801l4.939-9.123l44.615-2.079l-2.617,4.834l-22.831-38.155l4.902-9.055
				l47.729,25.664l-5.603,10.349l-31.829-17.145l1.032-1.906l18.131,30.416l-2.691,4.969l-35.564,1.786l1.253-2.315l31.792,17.213
				L215.171,445.077z"/>
			<path fill="#003366" d="M250.529,381.688l-28.464-52.057l7.508-9.851l57.79,13.572l-7.977,10.468l-50.065-13.234l3.004-3.941
				l25.994,44.823L250.529,381.688z M248.612,365.045l-5.556-8.419l16.891-22.168l9.639,3.063L248.612,365.045z"/>
			<path fill="#003366" d="M295.328,324.915l-38.004-38.63l7.394-7.276l50.156,5.391l-3.587,3.529l-27.363-27.814l8.83-8.686
				l38.005,38.63l-7.34,7.221l-50.211-5.337l3.587-3.529l27.364,27.814L295.328,324.915z"/>
			<path fill="#003366" d="M368.728,260.569l-30.975-44.466l10.29-7.169l30.975,44.466L368.728,260.569z"/>
			<path fill="#003366" d="M394.808,242.443l-26.015-47.539l9.1-4.98l46.779,18.878l-4.414,2.416l-18.73-34.228l10.865-5.946
				l26.015,47.538l-9.033,4.944l-46.846-18.842l4.414-2.416l18.73,34.228L394.808,242.443z"/>
			<path fill="#003366" d="M466.249,206.997l-15.856-41.014l-16.175,6.253l-3.685-9.532l44.047-17.028l3.684,9.532l-16.174,6.253
				l15.855,41.014L466.249,206.997z"/>
			<path fill="#003366" d="M506.534,192.526l-13.292-52.536l39.702-10.044l2.468,9.756l-27.618,6.988l8.354,33.022l28.595-7.235
				l2.468,9.758L506.534,192.526z M512.172,167.782l-2.393-9.457l25.293-6.399l2.393,9.457L512.172,167.782z"/>
			<path fill="#003366" d="M589.054,177.214c-4.256,0.491-8.244,0.261-11.963-0.686c-3.72-0.947-7.046-2.526-9.975-4.734
				c-2.93-2.207-5.321-4.919-7.172-8.134c-1.852-3.216-3.01-6.848-3.477-10.9c-0.467-4.049-0.164-7.852,0.906-11.404
				c1.072-3.552,2.796-6.738,5.172-9.558c2.376-2.819,5.281-5.115,8.714-6.888c3.431-1.772,7.302-2.907,11.609-3.403
				c4.768-0.549,9.154-0.249,13.156,0.899c4.003,1.149,7.487,3.087,10.449,5.809l-7.147,8.305c-2.185-1.826-4.488-3.106-6.909-3.84
				c-2.423-0.734-4.993-0.945-7.711-0.631c-2.615,0.302-4.951,0.987-7.01,2.054c-2.06,1.069-3.783,2.462-5.168,4.181
				c-1.388,1.718-2.382,3.678-2.986,5.877c-0.604,2.2-0.758,4.582-0.463,7.145c0.289,2.512,0.979,4.771,2.068,6.776
				s2.504,3.699,4.249,5.082c1.743,1.384,3.726,2.363,5.949,2.937c2.221,0.576,4.615,0.715,7.178,0.42
				c2.462-0.284,4.812-0.957,7.054-2.021c2.24-1.063,4.354-2.671,6.341-4.822l8.112,8.182c-2.669,2.542-5.87,4.625-9.605,6.25
				C596.688,175.737,592.899,176.771,589.054,177.214z M610.03,167.861l-11.569-0.303l-2.331-20.227l11.383-1.312L610.03,167.861z"
				/>
			<path fill="#003366" d="M628.228,172.973l1.613-54.167l23.137,0.689c7.531,0.224,13.334,2.14,17.409,5.747
				c4.076,3.606,6.022,8.48,5.839,14.619c-0.12,4.023-1.179,7.465-3.173,10.322c-1.996,2.858-4.771,5.008-8.324,6.452
				c-3.554,1.444-7.757,2.093-12.605,1.948l-16.483-0.491l5.735-5.328l-0.613,20.583L628.228,172.973z M641.336,154.155
				l-5.397-6.047l15.787,0.47c3.869,0.115,6.781-0.637,8.742-2.256c1.958-1.619,2.981-3.901,3.069-6.84
				c0.089-2.992-0.797-5.341-2.655-7.05c-1.862-1.707-4.725-2.619-8.593-2.734l-15.787-0.471l5.749-5.792L641.336,154.155z
				 M662.662,173.998l-12.956-20.059l13.387,0.399l13.111,20.063L662.662,173.998z"/>
			<path fill="#003366" d="M691.557,176.279l6.619-53.785l12.447,1.531l-6.619,53.786L691.557,176.279z"/>
			<path fill="#003366" d="M734.166,182.95l9.387-42.96l-16.941-3.702l2.182-9.983l46.135,10.08l-2.182,9.984l-16.942-3.702
				l-9.384,42.958L734.166,182.95z"/>
			<path fill="#003366" d="M787.536,197.216l7.266-20.915l0.216,8.107l-9.512-45.268l12.577,4.371l7.272,34.735l-7.24-2.515
				l27.318-22.716l11.627,4.04l-35.534,29.614l5.122-6.251l-7.268,20.914L787.536,197.216z"/>
			<path fill="#003366" d="M849.428,221.838l48.226-34.559l10.689,6.259l-6.474,59.007l-11.357-6.65l7.074-51.3l4.275,2.504
				l-41.344,31.232L849.428,221.838z M865.716,217.92l7.686-6.534l24.049,14.082l-1.872,9.938L865.716,217.92z"/>
			<path fill="#003366" d="M911.227,259.408l33.827-42.336l19.233,15.368c4.596,3.673,7.948,7.787,10.054,12.344
				c2.107,4.558,2.89,9.197,2.354,13.92c-0.537,4.723-2.53,9.243-5.978,13.557c-3.415,4.274-7.374,7.205-11.878,8.791
				c-4.506,1.587-9.212,1.855-14.122,0.806c-4.909-1.049-9.661-3.41-14.258-7.082L911.227,259.408z M927.451,259.193l8.952,7.152
				c2.822,2.255,5.696,3.678,8.628,4.269c2.93,0.591,5.759,0.357,8.487-0.7c2.727-1.056,5.155-2.916,7.282-5.578
				c2.158-2.7,3.443-5.488,3.857-8.363c0.413-2.873,0.008-5.674-1.213-8.402c-1.225-2.727-3.247-5.219-6.068-7.475l-8.951-7.152
				L927.451,259.193z"/>
			<path fill="#003366" d="M974.722,314.8l23.272-54.237l9.316,9.837l-20.799,47.843l-5.485-5.789l49.118-17.937l8.569,9.05
				l-55.477,20.228L974.722,314.8z"/>
			<path fill="#003366" d="M1005.603,349.902l42.869-33.152l7.672,9.921l-42.869,33.153L1005.603,349.902z"/>
			<path fill="#003366" d="M1033.606,390.917c-2.318-3.663-4.051-7.484-5.195-11.462c-1.145-3.98-1.582-7.491-1.309-10.534
				l10.258-1.455c-0.153,2.845,0.17,5.893,0.975,9.14c0.805,3.248,2.076,6.245,3.816,8.993c1.324,2.093,2.602,3.651,3.831,4.676
				c1.228,1.023,2.405,1.607,3.535,1.748c1.125,0.141,2.169-0.091,3.13-0.7c1.22-0.772,1.887-1.867,2-3.281
				c0.112-1.415-0.101-3.053-0.637-4.912c-0.535-1.859-1.197-3.869-1.984-6.028c-0.787-2.158-1.475-4.379-2.064-6.664
				c-0.591-2.283-0.905-4.513-0.938-6.691c-0.035-2.176,0.423-4.254,1.37-6.229c0.949-1.974,2.643-3.734,5.087-5.282
				c2.617-1.656,5.453-2.459,8.507-2.408c3.054,0.05,6.131,1.097,9.226,3.139c3.092,2.041,6.008,5.22,8.742,9.538
				c1.822,2.878,3.277,5.927,4.37,9.145c1.089,3.219,1.635,6.324,1.638,9.317l-10.116,1.823c-0.133-2.909-0.58-5.62-1.344-8.128
				c-0.764-2.51-1.794-4.789-3.091-6.839c-1.298-2.05-2.602-3.577-3.91-4.581c-1.308-1.004-2.524-1.548-3.645-1.632
				c-1.123-0.084-2.184,0.192-3.187,0.827c-1.177,0.745-1.822,1.825-1.934,3.24c-0.113,1.415,0.11,3.047,0.669,4.891
				c0.557,1.847,1.218,3.857,1.983,6.028c0.764,2.173,1.464,4.388,2.1,6.643c0.634,2.256,0.968,4.473,1.003,6.649
				c0.033,2.178-0.423,4.254-1.371,6.229c-0.949,1.975-2.623,3.722-5.02,5.24c-2.574,1.63-5.384,2.401-8.432,2.314
				c-3.047-0.086-6.129-1.144-9.246-3.171C1039.306,398.472,1036.367,395.277,1033.606,390.917z"/>
			<path fill="#003366" d="M1063.96,446.886c-1.781-3.897-2.792-7.789-3.035-11.678c-0.245-3.888,0.23-7.567,1.426-11.035
				c1.194-3.47,3.037-6.58,5.525-9.333s5.561-4.967,9.223-6.639c3.662-1.672,7.348-2.547,11.056-2.625
				c3.71-0.077,7.272,0.579,10.689,1.97c3.412,1.389,6.506,3.439,9.275,6.146c2.77,2.706,5.032,5.984,6.791,9.834
				c1.779,3.896,2.781,7.765,3.005,11.607c0.222,3.842-0.265,7.496-1.46,10.965c-1.197,3.469-3.021,6.586-5.472,9.352
				c-2.454,2.765-5.535,4.996-9.244,6.69c-3.661,1.673-7.364,2.542-11.109,2.606c-3.744,0.064-7.305-0.592-10.686-1.969
				c-3.383-1.378-6.451-3.408-9.208-6.092C1067.977,454.001,1065.718,450.735,1063.96,446.886z M1073.647,442.376
				c1.006,2.206,2.309,4.065,3.908,5.576c1.599,1.512,3.424,2.65,5.475,3.414c2.052,0.765,4.215,1.096,6.496,0.991
				c2.278-0.105,4.59-0.693,6.938-1.765c2.347-1.072,4.306-2.435,5.877-4.089c1.57-1.654,2.743-3.495,3.521-5.523
				c0.775-2.028,1.109-4.153,1.003-6.374c-0.108-2.22-0.664-4.434-1.672-6.641c-1.009-2.207-2.311-4.065-3.91-5.576
				c-1.599-1.512-3.422-2.649-5.473-3.414c-2.052-0.765-4.219-1.095-6.496-0.991c-2.28,0.105-4.592,0.694-6.939,1.766
				c-2.3,1.05-4.248,2.408-5.843,4.073c-1.595,1.665-2.779,3.51-3.554,5.54c-0.775,2.027-1.11,4.152-1.004,6.373
				C1072.08,437.956,1072.638,440.169,1073.647,442.376z"/>
			<path fill="#003366" d="M1081.949,488.019l52.021-15.18l6.484,22.221c2.11,7.232,2.08,13.344-0.094,18.333
				c-2.173,4.989-6.208,8.343-12.104,10.064c-3.864,1.128-7.464,1.183-10.798,0.167c-3.335-1.017-6.236-2.993-8.705-5.927
				c-2.469-2.936-4.385-6.732-5.743-11.388l-4.619-15.83l6.838,3.812l-19.767,5.768L1081.949,488.019z M1091.599,521.09
				l15.082-18.514l3.75,12.857l-15.036,18.662L1091.599,521.09z M1103.891,494.681l4.088-6.999l4.422,15.16
				c1.085,3.716,2.699,6.255,4.844,7.619c2.145,1.363,4.632,1.633,7.454,0.809c2.873-0.838,4.835-2.406,5.887-4.701
				c1.05-2.296,1.034-5.301-0.05-9.017l-4.425-15.161l7.283,3.681L1103.891,494.681z"/>
			<path fill="#003366" d="M1100.165,561.358l21.876-3.413l-7.054,4l35.487-29.669l2.053,13.156l-27.245,22.742l-1.181-7.573
				l32.89,13.439l1.898,12.162l-42.84-17.45l7.926,1.583l-21.876,3.414L1100.165,561.358z"/>
		</g>
	</g>
	<g>
		<path fill="#003366" d="M1123.66,631.982c-7.1,1.995-11.995,11.348-10.096,18.957c2.54,10.175,13.798,14.852,22.674,8.935
			c9.883-6.589,19.337-13.786,29.932-21.405c-10.739-1.895-20.574-3.63-30.844-5.443c0,4.012,0.497,7.817-0.195,11.403
			c-0.385,1.993-2.752,3.624-4.226,5.417c-1.805-1.546-4.615-2.793-5.208-4.697C1124.43,641.074,1124.307,636.661,1123.66,631.982z"
			/>
		<path fill="#003366" d="M153.368,645.149c-0.593,1.904-3.403,3.151-5.208,4.697c-1.474-1.794-3.842-3.424-4.226-5.417
			c-0.692-3.586-0.195-7.391-0.195-11.403c-10.27,1.813-20.106,3.548-30.845,5.443c10.596,7.619,20.05,14.816,29.932,21.405
			c8.876,5.917,20.135,1.24,22.674-8.935c1.899-7.609-2.996-16.961-10.096-18.957C154.757,636.661,154.635,641.074,153.368,645.149z
			"/>
	</g>
</g>
</svg>
